<?xml version="1.0" encoding="utf-8" ?>
<svg xmlns="http://www.w3.org/2000/svg" xmlns:xlink="http://www.w3.org/1999/xlink" width="1024" height="1024">
	<path fill="#FEFEFE" d="M0 0L1024 0L1024 1024L0 1024L0 0Z"/>
	<path fill="#D9E5EE" d="M744.571 204.598C748.776 204.184 752.591 204.016 756.589 205.699Q757.033 205.886 757.467 206.095Q757.901 206.304 758.323 206.535Q758.746 206.766 759.157 207.017Q759.568 207.269 759.965 207.54Q760.363 207.812 760.747 208.104Q761.13 208.395 761.499 208.705Q761.867 209.015 762.22 209.344Q762.572 209.672 762.908 210.017Q763.243 210.363 763.561 210.725Q763.879 211.087 764.179 211.464Q764.478 211.841 764.758 212.233Q765.038 212.625 765.298 213.03Q765.558 213.436 765.798 213.854Q766.037 214.272 766.256 214.701Q766.474 215.13 766.67 215.57Q766.867 216.01 767.041 216.459Q767.209 216.912 767.354 217.373Q767.498 217.834 767.619 218.302Q767.74 218.769 767.838 219.243Q767.935 219.716 768.007 220.193Q768.08 220.671 768.129 221.152Q768.177 221.632 768.201 222.115Q768.225 222.597 768.225 223.08Q768.224 223.564 768.199 224.046Q768.174 224.528 768.124 225.009Q768.074 225.489 768 225.967Q767.926 226.444 767.828 226.917Q767.729 227.39 767.607 227.858Q767.485 228.325 767.339 228.786Q767.193 229.246 767.024 229.699Q766.855 230.151 766.663 230.595Q766.471 231.038 766.257 231.471C763.671 236.572 759.365 239.553 754.067 241.252C750.329 241.719 746.926 241.592 743.39 240.177C738.44 238.196 734.126 234.16 732.075 229.209C730.24 224.78 730.422 219.858 732.347 215.491C734.772 209.99 739.086 206.693 744.571 204.598Z"/>
	<path fill="#D9E5EE" d="M923.223 442.612C927.64 442.254 931.444 442.09 935.641 443.897Q936.098 444.096 936.544 444.318Q936.99 444.54 937.425 444.784Q937.859 445.028 938.281 445.293Q938.703 445.559 939.111 445.845Q939.518 446.131 939.911 446.438Q940.305 446.744 940.682 447.07Q941.059 447.396 941.419 447.74Q941.78 448.084 942.122 448.446Q942.465 448.808 942.789 449.186Q943.113 449.565 943.417 449.959Q943.722 450.354 944.006 450.763Q944.291 451.172 944.554 451.595Q944.818 452.018 945.06 452.454Q945.302 452.889 945.522 453.336Q945.742 453.784 945.939 454.241Q946.136 454.699 946.31 455.166C948.078 459.895 947.686 465.074 945.41 469.564C942.833 474.648 938.108 478.262 932.716 479.923C928.443 481.011 923.693 480.665 919.693 478.782C914.897 476.523 911.326 472.209 909.72 467.185Q909.571 466.716 909.445 466.241Q909.32 465.765 909.22 465.284Q909.119 464.803 909.043 464.317Q908.967 463.831 908.916 463.342Q908.865 462.852 908.839 462.361Q908.813 461.87 908.813 461.378Q908.812 460.887 908.836 460.396Q908.861 459.904 908.91 459.415Q908.96 458.926 909.034 458.44Q909.109 457.954 909.208 457.472Q909.307 456.99 909.431 456.514Q909.555 456.038 909.703 455.569Q909.851 455.1 910.023 454.64Q910.195 454.179 910.39 453.727Q910.585 453.276 910.803 452.835Q911.021 452.394 911.261 451.965C913.964 447.04 917.963 444.265 923.223 442.612Z"/>
	<path fill="#D9E5EE" d="M68.6073 417.568C72.8529 417.27 76.5928 417.277 80.5627 419.126C85.3562 421.359 88.9749 425.691 90.6713 430.666Q90.8302 431.132 90.9654 431.606Q91.1007 432.08 91.212 432.56Q91.3233 433.04 91.4103 433.525Q91.4974 434.011 91.56 434.499Q91.6227 434.988 91.6607 435.48Q91.6987 435.971 91.712 436.464Q91.7253 436.956 91.7139 437.449Q91.7024 437.942 91.6663 438.433Q91.6302 438.924 91.5694 439.414Q91.5086 439.903 91.4234 440.388Q91.3382 440.873 91.2287 441.354Q91.1192 441.834 90.9858 442.309Q90.8523 442.783 90.6953 443.25Q90.5382 443.717 90.3578 444.176Q90.1775 444.635 89.9744 445.084Q89.7713 445.533 89.5459 445.971C86.7385 451.398 82.1174 454.226 76.4645 455.955C71.5018 456.818 66.3454 456.438 61.8744 453.951Q61.073 453.498 60.3198 452.969Q59.5665 452.439 58.8686 451.839Q58.1707 451.239 57.5348 450.573Q56.8989 449.908 56.3311 449.183Q55.7633 448.458 55.269 447.682Q54.7747 446.905 54.3588 446.084Q53.9428 445.262 53.6091 444.404Q53.2754 443.547 53.0271 442.66C51.4995 437.26 52.1915 431.202 55.1184 426.386C58.3319 421.098 62.8887 419.053 68.6073 417.568Z"/>
	<path fill="#488C7F" d="M6.13831 736.392C14.8576 736.353 23.7523 735.691 32.4397 736.62C54.4127 738.972 75.1005 752.915 86.3424 771.816C92.0926 781.484 96.1426 791.658 103.313 800.527C117.74 818.373 138.641 827.278 161.039 829.657Q164.664 843.554 167.624 857.608C168.723 862.747 169.54 868.155 170.965 873.2C141.343 872.53 112.941 862.417 87.7806 847.161Q85.8875 846.026 84.0229 844.845Q82.1584 843.663 80.3237 842.436Q78.4889 841.209 76.6851 839.937Q74.8813 838.664 73.1094 837.348Q71.3376 836.032 69.5988 834.672Q67.86 833.312 66.1554 831.91Q64.4508 830.508 62.7814 829.064Q61.112 827.62 59.4787 826.135Q57.8455 824.65 56.2495 823.125Q54.6535 821.6 53.0956 820.036Q51.5378 818.473 50.0191 816.871Q48.5004 815.269 47.0218 813.63Q45.5431 811.992 44.1054 810.317Q42.6678 808.642 41.2719 806.932Q39.8761 805.222 38.523 803.478Q37.1698 801.734 35.8602 799.957Q34.5506 798.18 33.2853 796.372Q32.02 794.563 30.7998 792.724Q29.5796 790.884 28.4053 789.015Q27.2309 787.146 26.1032 785.249Q24.9754 783.351 23.8948 781.427Q22.8143 779.502 21.7817 777.551Q20.749 775.6 19.765 773.624Q18.7809 771.649 17.8459 769.649Q16.911 767.65 16.0258 765.628Q15.1405 763.605 14.3056 761.562Q13.4706 759.519 12.6864 757.456Q11.9022 755.392 11.1692 753.31Q10.4363 751.228 9.75502 749.129Q9.07376 747.029 8.4446 744.913Q7.81545 742.797 7.23878 740.667Q6.66212 738.536 6.13831 736.392Z"/>
	<path fill="#488C7F" d="M793.119 823.07C797.003 824.21 866.803 823.79 874.117 822.782Q876.642 822.448 879.125 821.882Q881.608 821.316 884.028 820.521Q886.448 819.727 888.784 818.712Q891.12 817.696 893.351 816.468C924.391 799.536 916.393 759.402 956.996 742.54C965.292 739.094 973.736 737.296 982.729 738.456C971.531 777.514 949.19 811.298 916.99 836.13C910.495 841.139 904.002 845.847 896.812 849.834C875.255 861.791 853.69 868.3 829.548 872.453C829.462 872.427 829.376 872.403 829.291 872.376C822.653 870.235 799.135 871.456 790.306 871.433C776.407 871.396 762.455 871.401 748.566 870.92C755.562 868.598 762.13 865.561 768.039 861.102C779.259 852.634 791.089 837.356 793.119 823.07Z"/>
	<path fill="#488C7F" d="M3.15737 619.404C3.11642 606.49 1.9223 592.163 5.13003 579.599C9.36934 562.993 20.9233 548.092 35.655 539.394C53.6359 528.777 73.8839 528.64 93.599 533.808L114.141 623.076Q119.164 644.189 123.863 665.377C125.379 672.177 127.369 679.227 128.324 686.104C116.394 680.154 106.024 670.511 98.2386 659.774C92.6149 652.018 87.6023 644.102 80.6787 637.376C58.482 615.814 31.527 619.119 3.15737 619.404Z"/>
	<path fill="#488C7F" d="M3.30122 623.583C38.3051 623.493 65.5844 619.971 87.873 652.335C95.5249 663.446 102.257 673.467 113.064 681.886C115.841 684.05 126.783 692.5 129.777 692.121Q145.525 758.774 160.196 825.672C131.155 821.817 111.622 809.318 97.4719 783.473C91.6833 772.9 86.843 762.747 78.0858 754.156C56.0794 732.566 34.3489 732.312 5.75058 732.599C2.66003 714.511 3.27968 698.018 3.29192 679.775L3.30122 623.583Z"/>
	<path fill="#668CC3" d="M469.615 251.177C469.578 244.849 469.096 238.038 469.919 231.767C470.236 238.304 470.105 244.864 470.082 251.407L512.019 251.38C520.407 251.372 530.153 250.287 538.295 252.257Q539.208 252.48 540.104 252.764Q541 253.048 541.875 253.392Q542.75 253.736 543.599 254.139Q544.448 254.541 545.269 255Q546.089 255.459 546.876 255.972Q547.664 256.486 548.415 257.051Q549.166 257.617 549.876 258.232Q550.587 258.846 551.255 259.508C554.507 262.774 556.642 266.843 557.706 271.313C559.461 278.69 558.621 287.399 558.604 294.991Q558.49 312.021 558.608 329.05C558.613 335.461 559.47 348.122 558.637 353.691C558.43 355.079 557.977 356.516 556.881 357.469C555.673 358.52 554.005 358.801 552.464 358.926C547.036 359.366 541.323 358.791 535.858 358.743L502.718 358.663L433.181 358.627C424.859 358.664 409.409 359.878 402.004 358.657C400.582 358.423 399.699 357.665 398.895 356.5C398.579 356.042 398.461 355.744 398.241 355.266C398.788 349.106 398.467 342.704 398.463 336.511C398.453 322.602 398.113 308.722 397.989 294.82C397.923 287.457 397.254 279.25 398.743 272.012Q398.934 271.118 399.187 270.24Q399.439 269.362 399.752 268.503Q400.065 267.644 400.437 266.809Q400.809 265.974 401.237 265.167Q401.666 264.36 402.149 263.584Q402.633 262.808 403.169 262.068Q403.705 261.328 404.291 260.626Q404.877 259.925 405.51 259.266C408.607 256.064 412.602 253.529 416.938 252.413C426.877 249.855 457.567 251.158 469.615 251.177Z"/>
	<path fill="#D9E5EE" d="M527.836 381.201C527.963 381.178 528.087 381.144 528.215 381.131C547.049 379.305 567.213 387.655 581.606 399.405C596.277 411.381 605.827 431.37 607.593 450.055C609.426 469.43 603.749 491.289 591.175 506.377C577.028 523.352 559.096 532.395 537.192 534.472C518.126 534.727 499.985 530.64 484.826 518.383C469.307 505.834 458.17 486.737 456.083 466.811C454.021 447.124 458.834 426.301 471.453 410.781C485.829 393.101 505.32 383.567 527.836 381.201Z"/>
	<path fill="#488C7F" d="M796.851 646.473C809.174 651.889 821.827 653.513 834.597 648.492C845.304 644.282 854.53 635.47 859.115 624.903C864.009 613.627 862.056 601.736 862.815 589.846Q862.881 588.715 862.987 587.586Q863.093 586.458 863.238 585.334Q863.384 584.211 863.57 583.093Q863.755 581.975 863.98 580.864Q864.205 579.753 864.469 578.651Q864.733 577.549 865.036 576.457Q865.339 575.365 865.68 574.285Q866.022 573.204 866.401 572.137Q866.781 571.069 867.198 570.015Q867.615 568.961 868.069 567.923Q868.523 566.885 869.013 565.863Q869.504 564.842 870.03 563.838Q870.557 562.835 871.118 561.85Q871.68 560.866 872.276 559.902Q872.872 558.939 873.502 557.997Q874.131 557.054 874.794 556.135Q875.457 555.216 876.152 554.321Q876.847 553.426 877.573 552.556Q878.299 551.686 879.055 550.842Q879.812 549.998 880.598 549.182Q881.383 548.365 882.198 547.577Q883.012 546.789 883.854 546.03Q884.695 545.272 885.563 544.543Q886.431 543.815 887.325 543.117Q888.218 542.42 889.135 541.755Q890.053 541.089 890.993 540.457Q891.933 539.825 892.895 539.226Q893.857 538.627 894.84 538.063Q895.823 537.499 896.825 536.969Q897.827 536.44 898.847 535.947Q899.867 535.454 900.904 534.997Q901.942 534.54 902.994 534.12C918.188 528.058 935.912 527.983 950.986 534.485C967.306 541.524 979.702 554.163 986.22 570.678C991.635 584.394 990.367 597.025 990.799 611.361C984.645 611.372 978.285 611.086 972.164 611.746C957.663 613.31 943.74 620.748 933.567 631.043C921.075 643.684 915.776 658.805 909.759 675.067C907.615 680.862 905.633 686.888 902.558 692.269C894.233 706.834 879.153 711.261 863.256 711.444Q841.237 711.5 819.219 711.32C813.072 711.287 802.806 710.261 797.305 711.713C797.121 712.879 796.95 714.017 796.865 715.196C796.118 708.177 796.777 700.529 796.831 693.449C796.948 677.802 797.166 662.116 796.851 646.473Z"/>
	<path fill="#D9E5EE" d="M183.575 242.192C202.057 239.383 222.985 245.905 238.007 256.546C254.016 267.885 265.867 287.705 269.065 306.998C272.229 326.088 267.511 348.335 256.059 364.059C243.244 381.656 223.521 392.695 202.167 395.939Q200.295 396.146 198.415 396.264Q196.536 396.381 194.653 396.409Q192.769 396.436 190.887 396.373Q189.005 396.31 187.128 396.157Q185.251 396.004 183.383 395.761Q181.515 395.518 179.661 395.186Q177.808 394.854 175.972 394.434Q174.136 394.013 172.322 393.506Q170.509 392.998 168.722 392.404Q166.934 391.81 165.178 391.13Q163.421 390.451 161.699 389.689Q159.977 388.927 158.293 388.082Q156.609 387.238 154.968 386.315Q153.327 385.391 151.732 384.39Q150.137 383.388 148.591 382.312Q147.046 381.235 145.554 380.086C128.693 366.888 119.207 348.23 116.813 327.114Q116.589 325.281 116.456 323.439Q116.323 321.597 116.282 319.751Q116.24 317.905 116.291 316.059Q116.341 314.213 116.483 312.371Q116.625 310.53 116.858 308.698Q117.091 306.866 117.415 305.048Q117.739 303.23 118.152 301.43Q118.566 299.631 119.068 297.854Q119.571 296.076 120.16 294.327Q120.75 292.577 121.426 290.858Q122.102 289.14 122.863 287.457Q123.623 285.774 124.467 284.131Q125.31 282.488 126.233 280.889Q127.157 279.29 128.159 277.738Q129.16 276.187 130.238 274.687Q131.315 273.187 132.466 271.743C145.548 255.462 162.47 244.459 183.575 242.192Z"/>
	<path fill="#D9E5EE" d="M847.578 226.2C847.797 226.169 848.016 226.127 848.237 226.107C867.022 224.369 887.844 230.547 902.645 242.189C918.753 254.859 930.298 273.144 932.681 293.734C935.032 314.042 930.073 334.928 917.298 351.067C903.557 368.428 884.793 376.9 863.124 379.43C842.468 380.869 821.839 376.512 805.426 363.362C789.483 350.587 778.229 331.981 776.135 311.457C774.092 291.433 780.166 269.727 793.018 254.113C806.767 237.409 826.248 228.286 847.578 226.2Z"/>
	<path fill="#3F68AC" d="M550.161 201.081C573.307 201.383 596.479 201.257 619.626 201.207C631.534 201.181 648.013 199.845 659.205 202.247C664.251 203.33 669.257 206.784 672.825 210.44C675.995 213.688 679.05 218.108 680.337 222.497C683.231 232.367 681.864 248.617 681.873 259.126C681.883 271.222 682.055 283.345 681.833 295.437C681.652 305.3 679.498 313.481 672.197 320.465C659.956 332.174 640.346 328.794 624.855 329.044L624.962 382.943C610.57 365.771 598.63 346.457 584.499 329.006L558.608 329.05Q558.49 312.02 558.604 294.991C558.621 287.399 559.461 278.69 557.706 271.313C556.642 266.843 554.507 262.774 551.255 259.508Q550.587 258.846 549.876 258.232Q549.166 257.617 548.415 257.051Q547.664 256.486 546.876 255.972Q546.089 255.459 545.269 255Q544.448 254.541 543.599 254.139Q542.75 253.736 541.875 253.392Q541 253.048 540.104 252.764Q539.208 252.48 538.295 252.257C530.153 250.287 520.407 251.372 512.019 251.38L470.082 251.407C470.105 244.864 470.236 238.304 469.919 231.767C470.043 224.997 473.572 217.395 478.021 212.375C488.889 200.113 502.945 201.365 517.887 201.346C528.593 201.333 539.48 201.729 550.161 201.081Z"/>
	<path fill="#488C7F" d="M796.865 715.196L842.643 715.086C854.777 715.11 868.583 716.438 880.411 713.534Q881.778 713.196 883.12 712.766Q884.461 712.336 885.77 711.815Q887.078 711.295 888.349 710.687Q889.619 710.079 890.845 709.385Q892.071 708.692 893.247 707.917Q894.423 707.142 895.544 706.288Q896.664 705.435 897.724 704.507Q898.784 703.58 899.778 702.582C910.665 691.46 914.252 673.669 919.895 659.604C930.114 634.138 950.813 616.03 979.013 615.424C982.992 615.339 986.983 615.433 990.962 615.495L990.886 662.3C990.822 686.666 990.847 710.294 984.168 733.97C966.121 733.425 948.858 738.997 935.497 751.443C923.882 762.264 918.928 776.552 911.819 790.249C896.163 820.418 873.789 819.788 843.431 819.824C827.032 819.843 810.592 819.611 794.199 819.975C798.434 803.672 796.84 783.935 796.898 767.064C796.958 749.792 797.254 732.461 796.865 715.196Z"/>
	<path fill="#D9E5EE" d="M364.413 287.39Q356.249 287.442 348.085 287.396C336.843 287.238 326.253 284.386 318.252 276.051Q317.446 275.196 316.699 274.289Q315.953 273.382 315.268 272.427Q314.583 271.473 313.963 270.475Q313.343 269.477 312.791 268.44Q312.239 267.403 311.757 266.331Q311.275 265.259 310.866 264.158Q310.457 263.057 310.122 261.931Q309.786 260.805 309.527 259.659C307.289 249.963 308.608 238.336 308.669 228.376C308.752 214.933 308.612 201.462 308.898 188.023C309.123 177.427 312.102 167.106 320.088 159.582Q320.822 158.891 321.603 158.254Q322.384 157.617 323.208 157.037Q324.033 156.457 324.896 155.937Q325.76 155.418 326.658 154.961Q327.557 154.504 328.486 154.113Q329.415 153.721 330.369 153.397Q331.323 153.072 332.298 152.817Q333.273 152.561 334.264 152.376C341.544 151.078 349.305 151.474 356.68 151.455L385.47 151.403C416.158 151.368 447.121 150.677 477.781 151.662C489.264 152.031 498.887 155.718 506.766 164.283C516.983 175.387 516.739 186.61 516.089 200.868C527.331 200.843 538.977 200.231 550.161 201.081C539.48 201.729 528.593 201.333 517.887 201.346C502.945 201.365 488.889 200.113 478.021 212.375C473.572 217.395 470.043 224.997 469.919 231.767C469.096 238.038 469.578 244.849 469.615 251.177C457.567 251.158 426.877 249.855 416.938 252.413C412.602 253.529 408.607 256.064 405.51 259.266Q404.877 259.925 404.291 260.626Q403.705 261.328 403.169 262.068Q402.633 262.808 402.149 263.584Q401.666 264.36 401.237 265.167Q400.809 265.974 400.437 266.809Q400.065 267.644 399.752 268.503Q399.439 269.362 399.187 270.24Q398.934 271.118 398.743 272.012C397.254 279.25 397.923 287.457 397.989 294.82C398.113 308.722 398.453 322.602 398.463 336.511C398.467 342.704 398.788 349.106 398.241 355.266C397.311 349.973 397.888 343.721 397.897 338.324Q397.965 321.896 397.86 305.468C392.797 313.542 372.492 333.747 364.695 339.018C363.879 321.906 364.459 304.539 364.413 287.39Z"/>
	<path d="M649.111 406.786C647.119 401.281 648.112 396.234 650.6 391.034C657.342 376.942 670.845 366.306 685.426 361.334Q686.932 360.814 688.461 360.37Q689.991 359.926 691.541 359.559Q693.09 359.192 694.656 358.902Q696.223 358.612 697.801 358.401Q699.38 358.189 700.967 358.056Q702.554 357.923 704.146 357.87Q705.738 357.816 707.33 357.842Q708.923 357.867 710.512 357.972Q712.101 358.077 713.683 358.26Q715.266 358.444 716.837 358.706Q718.407 358.968 719.964 359.308Q721.52 359.648 723.057 360.065Q724.594 360.482 726.108 360.975Q727.623 361.467 729.111 362.035Q730.599 362.603 732.057 363.243Q733.516 363.884 734.94 364.597C751.453 372.828 763.341 388.125 768.975 405.492C775.063 424.256 771.868 441.654 763.565 459.046C783.316 485.3 816.106 497.015 829.682 528.596C830.775 531.137 832.955 535.32 832.642 538.12C832.539 539.048 832.124 540.282 831.248 540.774C828.299 542.431 791.845 541.442 785.37 541.414C788.706 548.814 791.828 556.116 793.773 564.033C798.247 582.238 796.817 606.074 796.688 625.031C796.641 632.049 796.138 639.501 796.851 646.473C797.166 662.116 796.948 677.802 796.831 693.449C796.777 700.529 796.118 708.177 796.865 715.196C797.254 732.461 796.958 749.792 796.898 767.064C796.84 783.935 798.434 803.672 794.199 819.975L793.119 823.07C791.089 837.356 779.259 852.634 768.039 861.102C762.13 865.561 755.562 868.598 748.566 870.92C762.455 871.401 776.407 871.396 790.306 871.433C799.135 871.456 822.653 870.235 829.291 872.376C829.376 872.403 829.462 872.427 829.548 872.453C818.979 874.655 798.924 873.418 787.258 873.402L704.363 873.285L377.676 873.211L231.11 873.22L190.462 873.252C184.162 873.267 177.202 873.894 170.965 873.2C169.54 868.155 168.723 862.747 167.624 857.608Q164.664 843.554 161.039 829.657L160.196 825.672Q145.524 758.774 129.777 692.121C129.347 690.099 128.848 688.104 128.324 686.104C127.369 679.227 125.379 672.177 123.863 665.377Q119.164 644.189 114.141 623.076L93.599 533.808C92.8032 529.942 91.8644 526.053 91.2522 522.156Q141.342 521.832 191.433 522.105C209.444 522.155 227.521 522.521 245.527 522.118C263.579 503.069 274.035 495.731 299.047 487.287C299.064 479.625 299.178 471.951 299.073 464.291C288.762 463.685 278.321 464.002 267.991 464.019C267.974 436.136 266.015 413.9 287.539 392.599C298.29 381.959 313.509 376.513 328.524 376.755Q329.906 376.768 331.287 376.848Q332.667 376.929 334.041 377.079Q335.415 377.228 336.781 377.445Q338.146 377.662 339.499 377.946Q340.852 378.231 342.189 378.582Q343.526 378.933 344.844 379.35Q346.163 379.767 347.458 380.248Q348.754 380.73 350.025 381.275Q351.295 381.82 352.537 382.428Q353.779 383.035 354.989 383.704Q356.199 384.372 357.375 385.099Q358.551 385.827 359.689 386.611Q360.827 387.396 361.925 388.236Q363.023 389.076 364.078 389.97Q365.133 390.863 366.142 391.808Q367.152 392.753 368.113 393.746C381.714 407.874 388.061 426.427 387.608 445.891C387.469 451.838 386.776 458.056 385.234 463.814C379.268 463.52 373.317 463.504 367.346 463.499C362.453 472.316 355.364 478.805 346.492 483.503C346.537 485.459 346.522 487.436 346.634 489.388Q347.8 489.743 348.957 490.126Q350.114 490.509 351.262 490.92Q352.409 491.33 353.546 491.769Q354.683 492.208 355.81 492.674Q356.936 493.14 358.05 493.634Q359.165 494.128 360.267 494.648Q361.369 495.168 362.458 495.716Q363.547 496.263 364.623 496.836Q365.698 497.409 366.759 498.009Q367.821 498.608 368.867 499.233Q369.913 499.858 370.944 500.509Q371.975 501.159 372.99 501.834Q374.005 502.509 375.003 503.209Q376.001 503.909 376.981 504.632Q377.962 505.356 378.925 506.104Q379.888 506.851 380.832 507.621Q381.776 508.392 382.702 509.185Q383.627 509.978 384.533 510.794Q385.439 511.609 386.324 512.447Q387.21 513.284 388.075 514.143Q388.94 515.001 389.784 515.881Q390.628 516.76 391.45 517.66Q392.273 518.559 393.073 519.479Q393.873 520.398 394.651 521.337Q395.428 522.275 396.183 523.233Q396.937 524.19 397.668 525.165Q398.399 526.14 399.106 527.133Q399.813 528.126 400.496 529.135Q401.179 530.145 401.837 531.171Q402.495 532.197 403.128 533.239Q403.761 534.28 404.368 535.337Q404.975 536.394 405.557 537.465C410.049 545.618 413.243 554.486 415.665 563.456C419.603 578.048 421.373 593.529 423.979 608.419C426.689 623.91 430.389 639.791 431.681 655.455C445.745 655.457 460.341 656.286 474.335 655.281C485.282 654.494 497.023 651.946 507.645 649.185C512.128 648.019 526.604 642.795 530.548 646.014C531.317 646.642 531.985 647.92 531.91 648.925C531.735 651.247 529.594 653.045 527.839 654.32C520.436 659.699 512.495 660.901 505.006 664.747C504.088 665.218 503.765 665.338 503.337 666.301C507.388 670.891 517.748 672.095 523.478 672.455C530.49 672.895 548.729 669.381 554.003 672.882C555.024 674.236 555.305 675.58 555.705 677.188C557.221 678.505 559.297 677.697 560.93 678.771C562.896 680.064 562.336 682.492 563.359 684.198C564.257 685.697 567.271 685.972 568.329 688.062C568.38 690.411 566.783 691.988 565.287 693.619C573.627 693.075 581.914 692.085 590.229 691.269L590.433 690.566C592.847 682.079 593.652 672.851 595.216 664.159L606.062 606.745C610.187 585.141 613.173 557.913 623.514 538.689C631.872 523.151 644.808 511.026 660.075 502.392Q663.457 500.438 667.029 498.858Q670.601 497.277 674.321 496.088C675.464 490.16 676.348 484.123 677.618 478.231C666.811 477.794 656.786 475.204 649.245 466.94C643.829 461.006 641.03 452.622 641.494 444.631C642.099 434.201 646.625 417.328 649.111 406.786Z"/>
	<path fill="#FEFEFE" d="M624.031 745.531L624.404 745.864C625.276 750.206 624.546 755.725 624.469 760.195L588.12 760.484C586.03 759.042 583.884 757.675 581.763 756.279L574.777 751.424C591.332 749.873 608.292 751.648 624.031 745.531Z"/>
	<path fill="#E16349" d="M373.024 404.565C374.113 404.637 374.236 404.859 374.933 405.754C382.049 414.887 385.385 432.805 385.402 444.099C385.411 450.004 384.558 455.814 383.742 461.647L375.773 461.569L368.203 461.636C375.39 448.31 377.74 433.036 373.51 418.302C372.333 414.202 369.939 410.237 369.29 406.037C370.425 405.05 371.595 404.926 373.024 404.565Z"/>
	<path fill="#FEFEFE" d="M301.494 461.249C303.763 462.89 305.381 466.297 307.184 468.497C309.434 471.243 312.395 473.823 315.235 475.942C323.441 482.066 334.181 485.844 344.45 484.364C344.632 486.053 345.168 488.383 344.947 490.048C344.751 491.53 344.421 491.576 343.246 492.327Q338.31 493.783 333.233 494.622C321.617 496.476 310.982 493.953 301.477 487.062Q301.343 474.155 301.494 461.249Z"/>
	<path fill="#FEFEFE" d="M423.523 710.13C432.473 709.688 441.598 710.293 450.555 710.555C451.433 715.618 451.669 720.947 452.176 726.067L455.151 754.955C447.364 756.391 439.272 756.903 431.417 758.027C423.655 759.137 404.273 763.236 397.426 762.517C396.17 761.821 395.671 761.448 394.891 760.178C395.57 753.353 423.069 755.593 427.428 751.007C423.37 748.425 413.465 751.317 408.588 752.05Q403.086 752.788 397.593 753.589C395.138 753.925 392.978 754.555 390.829 752.927C390.16 751.602 390.081 751.446 390.24 749.98C394.226 744.538 416.292 745.398 424.504 741.219L424.65 740.699C415.93 738.992 395.469 747.17 389.136 743.336C388.714 742.572 388.39 742.308 388.476 741.397C388.642 739.64 389.537 738.513 391.098 737.746C393.557 736.539 397.158 736.467 399.899 736.098C409.614 734.789 429.033 733.969 436.195 727.713C437.26 726.782 438.338 725.477 438.263 723.971C437.977 718.255 428.417 716.279 424.873 713.254C423.723 712.272 423.692 711.575 423.523 710.13Z"/>
	<path fill="#FEFEFE" d="M522.801 647.576L523.411 647.511C525.441 647.304 527.782 646.876 529.471 648.266C529.783 656.253 503.375 659.942 500.367 665.538C500.575 666.828 500.723 667.405 501.734 668.288C511.667 676.965 531.861 674.393 543.753 673.595C546.588 673.405 550.417 672.857 552.663 674.83C553.174 675.967 553.281 675.943 552.897 677.109C547.682 681.224 532.713 678.485 525.573 681.588L525.367 682.172C533.324 685.226 553.931 676.521 559.798 681.953C560.703 682.79 560.889 683.311 560.851 684.501C557.843 687.758 530.118 689.451 523.426 690.752C522.22 690.987 521.389 691.104 520.7 692.172L521.306 692.948C523.874 693.613 528.837 692.258 531.583 691.864C535.506 691.446 561.843 687.269 563.522 687.599C564.799 687.85 564.96 687.931 565.606 688.952C565.445 689.668 565.267 690.242 564.808 690.831C563.433 692.597 561.464 693.72 559.309 694.254C551.699 696.138 537.844 696.862 529.393 697.729L470.572 703.897Q470.345 680.984 470.349 658.072C488.218 655.413 505.284 651.975 522.801 647.576Z"/>
	<path fill="#E16349" d="M320.77 379.16Q323.079 378.898 325.402 378.822Q327.724 378.746 330.046 378.858Q332.367 378.969 334.672 379.266Q336.977 379.563 339.25 380.045C353.505 383.126 364.679 390.741 372.587 402.987C364.209 404.097 355.859 406.166 347.604 407.966Q325.747 412.777 304.036 418.21C301.538 424.472 299.338 430.593 298.981 437.375L299.104 461.804L270.363 461.685C270.408 438.953 268.572 420.648 282.868 401.261C292.151 388.673 305.432 381.422 320.77 379.16Z"/>
	<path fill="#FEFEFE" d="M677.797 405.668C680.757 405.321 683.712 405.476 686.685 405.554C687.252 412.569 687.559 421.164 690.719 427.57C691.614 429.384 692.51 430.415 694.472 431.043C698.022 430.213 698.732 425.635 700.629 422.86C701.444 421.667 702.295 421.217 703.702 420.94C705.047 421.169 706.081 421.451 707.049 422.492C708.304 423.84 708.61 425.826 708.625 427.595C708.693 435.424 704.844 444.345 699.5 449.9C699.525 461.746 702.442 478.061 704.29 489.988C695.498 490.343 687.564 491.875 679.133 494.36L677.491 494.775L677.119 494.215C677.765 489.997 678.34 485.689 679.285 481.528C680.096 477.953 681.727 478.009 684.665 476.237L684.738 475.627C681.971 474.415 673.587 476.251 669.241 475.448C661.032 473.932 652.674 468.748 648.09 461.719Q647.573 460.914 647.111 460.075Q646.649 459.237 646.243 458.37Q645.838 457.503 645.492 456.611Q645.145 455.719 644.859 454.806Q644.572 453.893 644.347 452.963Q644.122 452.032 643.96 451.089Q643.798 450.146 643.699 449.194Q643.599 448.242 643.564 447.286C643.223 438.09 648.662 418.066 650.736 408.339C659.164 411.433 668.478 406.924 677.006 405.771L677.797 405.668Z"/>
	<path fill="#FEFEFE" d="M364.802 406.632C365.23 406.56 365.983 406.644 366.428 406.656C367.082 407.367 367.436 407.916 367.857 408.806C373.368 420.433 375.111 437.985 370.617 450.189C369.866 452.228 368.721 454.434 366.582 455.253C360.154 457.714 357.846 455.115 352.32 453.625C351.253 453.338 351.127 453.582 350.278 454.173C350.574 455.124 350.318 454.78 351.204 455.423C356.38 459.181 362.683 458.237 368.531 457.185C365.767 462.349 362.752 467.512 358.811 471.873C352.006 471.417 344.041 469.36 340.378 463.035C339.203 461.005 338.873 458.623 337.261 456.864L336.411 456.87L335.957 457.713C336.262 460.243 337.433 462.427 338.773 464.563C342.717 470.846 348.119 472.11 354.881 473.73L355.661 474.16C355.183 476.112 351.734 478.321 350.024 479.423C344.834 482.767 339.337 483.141 333.418 481.905C318.243 478.737 309.531 468.499 301.514 456.11C301.695 442.053 300.56 433.431 305.602 419.964C325.401 415.799 344.927 410.575 364.802 406.632Z"/>
	<path fill="#FEFEFE" d="M143.961 524.17C177.246 523.573 210.682 523.962 243.977 524.253C241.39 527.916 238.855 531.635 236.612 535.522C229.191 548.376 224.746 564.202 223.038 578.915C221.773 589.816 222.447 601.109 222.44 612.079L222.464 669.286L222.613 751.655C222.649 770.261 220.89 799.911 225.529 817.031C231.211 837.999 245.746 854.511 264.305 865.229C268.979 867.717 273.808 869.418 278.845 871.012C260.721 871.589 242.422 871.185 224.284 871.155L143.961 524.17Z"/>
	<path fill="#FEFEFE" d="M99.4408 524.237Q120.751 523.982 142.062 524.184C149.277 550.749 154.836 578.04 160.961 604.885L193.756 749.083C199.328 773.734 204.892 798.421 210.845 822.981L217.516 851.558C218.974 857.752 220.877 864.126 221.694 870.431C220.595 871.335 219.513 871.082 218.125 871.141Q195.498 871.318 172.872 871.17L123.301 653.433Q108.042 589.032 93.6715 524.426L99.4408 524.237Z"/>
	<path fill="#3F68AC" d="M562.28 752.205L570.619 751.786C575.334 754.666 580.134 757.461 584.69 760.589L581.089 760.545L521.715 760.444C504.223 760.461 480.76 758.769 464.218 763.575C454.308 766.455 445.181 772.585 437.898 779.805C418.911 798.628 417.425 817.207 417.46 842.414L417.377 870.986L335.171 871.104C318.387 871.121 298.44 872.556 282.118 869.152C272.935 867.237 265.039 863.059 257.295 857.899Q251.267 853.751 246.159 848.513C221.195 823.034 224.662 794.766 224.852 762.095L393.278 762.026Q393.851 762.583 394.44 763.124C395.739 764.301 396.44 764.927 398.267 764.954C404.882 765.054 411.746 763.303 418.363 762.78C428.108 762.009 437.936 762.267 447.694 761.558C457.534 760.843 467.266 759.08 477.081 758.107C505.347 755.302 533.92 753.9 562.28 752.205Z"/>
	<path fill="#668CC3" d="M636.938 762.75C689.42 761.992 742.036 762.381 794.525 762.476L794.543 767.763C794.645 798.621 797.851 829.045 773.877 852.926C765.791 860.981 755.712 867.282 744.5 869.805C735.285 871.878 725.316 871.207 715.916 871.188L684.184 871.106L576.75 871.214L419.89 871.076L419.645 842.023C419.564 818.248 421.579 800.073 439.009 782.234C446.035 775.042 455.866 768.325 465.697 765.816C478.503 762.547 491.67 763.021 504.77 763.007L536.312 762.978L636.938 762.75Z"/>
	<path fill="#D9E5EE" d="M300.241 489.156Q302.332 490.58 304.564 491.77Q306.796 492.961 309.143 493.904Q311.49 494.847 313.925 495.531Q316.36 496.216 318.855 496.634C327.45 498.045 340.716 497.048 348.007 491.867C358.076 495.898 367.752 500.331 376.512 506.833C409.854 531.578 414.222 564.57 420.795 602.294Q425.539 628.816 429.703 655.436L407.024 655.449C404.489 637.477 401.232 619.631 398.339 601.717C396.699 591.553 395.657 577.822 392.227 568.261L391.559 569.163L391.734 567.475L392.131 568.207L391.51 568.497C390.821 577.64 394.936 594.813 396.565 604.583L404.817 655.415C376.244 654.481 347.478 655.124 318.887 655.118C312.069 629.758 306.39 602.296 300.758 576.574C298.89 568.04 296.788 559.562 294.892 551.04C294.312 548.431 293.986 545.785 293.28 543.199C292.792 541.414 292.227 539.363 290.837 538.074L290.319 538.599C290 543.385 294.405 558.286 295.711 564.116C302.687 595.255 309.353 626.687 317.363 657.561L468.077 657.603Q468.143 680.954 468.519 704.302C462.792 704.791 456.33 704.787 450.827 706.345Q450.393 707.397 449.941 708.442C442.067 709.437 433.437 706.756 425.415 707.53C423.464 707.718 422.393 708.108 421.126 709.697C421.035 710.408 420.86 710.826 421.166 711.512C422.228 713.899 424.44 714.859 426.654 715.937C403.839 716.6 380.95 716.248 358.125 716.198L322.656 716.147C312.018 716.136 297.643 717.609 287.646 714.344C256.702 704.237 256.867 675.46 251.377 648.598Q245.512 620.421 240.134 592.147C238.979 585.938 236.81 571.538 234.348 566.614L233.537 566.525L233.011 567.5C233.027 570.929 237.034 587.509 237.909 591.996L249.842 651.634C252.133 663.418 253.638 676.435 257.394 687.803C259.328 693.654 262.504 698.602 266.689 703.106C273.1 710.007 281.561 715.226 290.77 717.387C300.423 719.652 317.759 718.366 328.207 718.384L390.819 718.465C402.631 718.465 414.586 718.086 426.384 718.588C428.94 718.696 432.666 718.758 434.355 721.02C435.116 722.039 435.467 723.047 435.192 724.322C433.25 733.318 396.35 731.281 388.055 736.428C383.751 739.098 387.458 742.573 388.146 745.908C388.431 747.295 387.501 748.676 387.329 750.043C386.709 754.97 390.938 754.263 392.929 757.112C393.352 757.718 393.007 758.247 392.856 758.911C392.57 759.107 392.335 759.417 391.999 759.498C388.784 760.276 383.634 759.749 380.219 759.777L346.576 759.821C305.966 759.826 265.184 760.598 224.593 759.619L224.446 641.446L224.4 605.043C224.391 597.017 224.072 588.835 224.92 580.85C226.248 568.344 229.451 555.274 234.703 543.82C243.333 525.001 260.077 507.086 278.547 497.648C285.544 494.073 292.916 491.891 300.241 489.156Z"/>
	<path fill="#E16349" d="M700.85 492.212C701.421 492.137 702.162 491.987 702.75 492.014C704.798 492.11 704.844 492.966 705.172 494.809C707.183 506.093 711.691 515.844 719.838 524.092C739.239 543.736 757.468 541.298 782.706 541.44C787.687 551.582 791.434 561.898 793.016 573.122C795.673 591.983 794.074 612.139 794.25 631.19Q794.751 695.58 794.453 759.971L626.979 760.273L627.054 744.39C634.246 740.166 640.574 734.933 645.275 727.995Q646.541 726.136 647.638 724.172Q648.735 722.208 649.655 720.155Q650.575 718.103 651.31 715.977Q652.046 713.851 652.591 711.669C655.364 700.632 678.125 567.27 677.712 565.839C677.516 565.156 677.033 565.104 676.46 564.793C675.071 566.687 666.002 622.984 664.874 629.444C660.342 649.443 657.657 670.421 654.016 690.669C652.601 698.535 651.617 706.864 649.183 714.467Q647.981 718.103 646.243 721.517Q644.505 724.93 642.272 728.041C636.313 736.331 627.296 742.497 617.532 745.411C605.366 749.043 588.227 747.985 575.339 748.793L504.535 753.672C488.88 754.8 472.86 755.436 457.363 757.998C455.026 741.585 454.218 724.658 452.657 708.12L592.241 693.373C595.313 680.24 597.228 666.681 599.612 653.399L610.997 592.834C613.691 578.753 615.6 563.962 620.53 550.474Q621.82 546.972 623.418 543.601Q625.017 540.229 626.912 537.015Q628.807 533.8 630.984 530.769Q633.16 527.738 635.599 524.914C651.322 506.552 676.778 493.996 700.85 492.212Z"/>
</svg>
