<?xml version="1.0" encoding="utf-8" ?>
<svg xmlns="http://www.w3.org/2000/svg" xmlns:xlink="http://www.w3.org/1999/xlink" width="1024" height="1024">
	<path fill="#FEFEFE" d="M0 0L1024 0L1024 1024L0 1024L0 0Z"/>
	<path fill="#0C1114" d="M197.985 317.589C212.187 289.291 229.051 262.8 249.762 238.786C288.7 193.637 344.794 155.519 401.417 136.695Q405.458 135.337 409.532 134.078Q413.605 132.819 417.709 131.66Q421.812 130.501 425.942 129.443Q430.072 128.385 434.227 127.429Q438.382 126.472 442.56 125.618Q446.737 124.763 450.934 124.011Q455.13 123.26 459.344 122.611Q463.558 121.962 467.787 121.417Q472.016 120.871 476.256 120.43Q480.497 119.988 484.747 119.65Q488.997 119.313 493.255 119.079Q497.512 118.846 501.774 118.717Q506.035 118.588 510.299 118.563Q514.562 118.539 518.825 118.619Q523.088 118.699 527.348 118.883Q531.608 119.067 535.862 119.356Q540.115 119.644 544.361 120.037Q548.606 120.429 552.841 120.926Q557.076 121.423 561.297 122.023Q565.518 122.623 569.723 123.326Q573.929 124.03 578.115 124.836Q582.302 125.642 586.468 126.55Q590.634 127.459 594.776 128.469Q598.918 129.479 603.034 130.591Q607.151 131.702 611.238 132.914Q615.326 134.126 619.383 135.438Q623.44 136.749 627.463 138.16Q631.487 139.571 635.474 141.08Q639.462 142.588 643.412 144.194Q647.361 145.801 651.271 147.503Q655.18 149.205 659.046 151.003Q662.912 152.8 666.733 154.692Q669.444 156.068 672.131 157.491Q674.818 158.913 677.48 160.382Q680.142 161.851 682.779 163.365Q685.415 164.879 688.025 166.439Q690.635 167.999 693.218 169.603Q695.8 171.207 698.355 172.856Q700.91 174.504 703.436 176.196Q705.962 177.889 708.458 179.624Q710.954 181.36 713.42 183.138Q715.886 184.916 718.321 186.737Q720.757 188.557 723.16 190.42Q725.563 192.282 727.934 194.185Q730.305 196.089 732.643 198.032Q734.981 199.976 737.285 201.96Q739.589 203.944 741.858 205.967Q744.128 207.991 746.362 210.053Q748.596 212.115 750.794 214.215Q752.993 216.315 755.155 218.453Q757.317 220.591 759.441 222.766Q761.566 224.94 763.653 227.151Q765.74 229.362 767.788 231.609Q769.837 233.856 771.846 236.137Q773.856 238.419 775.826 240.735Q777.796 243.051 779.726 245.4Q781.656 247.749 783.544 250.132Q785.433 252.514 787.281 254.929Q789.129 257.343 790.935 259.789Q792.74 262.235 794.504 264.712Q796.267 267.189 797.988 269.696Q799.708 272.202 801.385 274.738Q803.062 277.275 804.695 279.839Q806.328 282.404 807.917 284.996C814.625 295.779 820.169 307.059 826.158 318.236C835.347 319.443 844.37 322.244 853.169 325.088C888.809 336.611 920.185 356.153 943.233 386.081C966.932 416.856 980.712 456.711 975.636 495.802C973.993 508.45 970.289 520.489 967.519 532.894Q966.827 536.073 966.273 539.279Q965.719 542.484 965.303 545.711Q964.887 548.937 964.61 552.179Q964.333 555.42 964.195 558.67Q964.058 561.921 964.06 565.174Q964.063 568.427 964.205 571.677Q964.348 574.927 964.629 578.168Q964.911 581.409 965.332 584.635Q965.811 588.468 966.469 592.275Q967.127 596.081 967.962 599.853Q968.797 603.625 969.807 607.353Q970.817 611.082 972 614.759Q973.183 618.436 974.537 622.054Q975.89 625.672 977.411 629.223Q978.933 632.774 980.618 636.25Q982.303 639.726 984.149 643.119C991.826 657.029 998.622 666.368 1004.09 682.131C1031.93 762.308 966.709 849.753 906.171 896.049C902.343 898.976 897.483 903.385 892.747 904.511C887.58 905.74 831.176 905.301 825.276 904.589L643.97 904.658C622.219 904.634 600.439 904.307 578.691 904.607L575.545 904.472C565.17 905.213 554.544 904.842 544.141 904.704Q526.689 904.511 509.236 904.518Q443.993 904.973 378.75 904.7L213.574 904.711L163.875 904.358C151.923 904.357 139.414 904.988 127.535 903.868C127.102 903.669 127.037 903.652 126.568 903.361C118.53 898.392 110.794 891.298 103.549 885.237C60.7551 849.435 27.2712 803.054 17.3443 747.308C14.2331 729.837 13.228 713.839 16.9797 696.295C21.3235 675.981 30.1981 661.763 40.2702 644.164C56.9031 615.101 64.7513 578.536 60.0976 545.225C58.5632 534.241 55.1758 523.602 52.7908 512.788C44.3483 474.509 51.1772 431.84 72.5585 398.656C95.3275 363.318 127.611 338.27 167.573 325.282C177.55 322.04 187.755 319.847 197.985 317.589Z"/>
	<path fill="#D1E1DC" d="M564.355 901.956C569.703 899.552 574.772 896.291 578.996 892.209Q581.308 889.964 583.273 887.411Q585.239 884.858 586.817 882.049C590.061 876.235 613.069 824.01 613.135 820.29L612.571 819.77C611.498 820.238 611.114 820.729 610.601 821.762C603.796 835.471 598.366 850.256 592.24 864.316C589.526 870.544 586.89 877.081 583.324 882.876C578.112 891.349 569.348 898.201 559.577 900.444C549.75 902.7 538.78 901.868 530.147 896.376C521.833 891.087 516.511 882.646 514.421 873.112C512.84 865.899 513.685 858.715 515.506 851.627C517.665 843.223 521.11 834.986 524.091 826.842L538.921 785.943L563.416 716.483C567.297 705.586 571.493 689.969 577.632 680.519C582.85 672.486 590.339 665.203 598.487 660.173C605.576 655.796 614.171 653.286 621.979 650.433L651.338 639.641C658.522 636.997 669.591 631.947 676.622 630.648C684.588 629.177 699.343 630.073 707.997 630.048L738.3 630.026C744.415 630.046 750.841 629.722 756.884 630.677C766.768 632.239 776.883 636.713 786.498 639.624C799.033 643.419 812.268 646.254 824.477 650.924C829.573 652.873 834.558 655.238 839.117 658.251C853.98 668.074 864.127 685.022 866.792 702.531C869.027 717.215 864.731 737.177 862.689 752.215L854.561 810.305C853.789 815.792 850.575 828.505 851.816 833.129C851.889 833.402 851.984 833.668 852.068 833.937C851.462 835.263 851.335 836.185 851.221 837.611L851.029 837.804L852.674 838.217C852.952 839.301 852.915 839.431 852.732 840.48C851.364 848.341 850.641 856.436 849.466 864.353C847.542 877.321 845.159 890.42 844.287 903.505C848.765 903.569 853.205 903.556 857.646 904.206L858.305 904.297C847.383 904.484 836.154 903.851 825.276 904.589L643.97 904.658C622.219 904.634 600.439 904.307 578.691 904.607L575.545 904.472C575.159 903.887 574.672 903.331 574.238 902.78C571.132 901.518 567.653 901.914 564.355 901.956Z"/>
	<path fill="#0C1114" d="M851.029 837.804L852.674 838.217C852.952 839.301 852.915 839.431 852.732 840.48C851.364 848.341 850.641 856.436 849.466 864.353C847.542 877.321 845.159 890.42 844.287 903.505C848.765 903.569 853.205 903.556 857.646 904.206L858.305 904.297C847.383 904.484 836.154 903.851 825.276 904.589L643.97 904.658C622.219 904.634 600.439 904.307 578.691 904.607C577.65 904.43 576.758 904.156 575.77 903.784C577.495 902.324 579.753 902.108 581.93 901.966C590.942 901.377 600.473 902.084 609.564 902.077L672.796 902.057C728.963 902.042 785.23 901.279 841.387 902.241C842.825 895.936 843.369 889.21 844.249 882.799L848.334 854.477C849.082 849.13 849.143 842.821 851.029 837.804Z"/>
	<path fill="#0C1114" d="M623.391 792.631C624.37 792.866 624.914 793.059 625.697 793.698C625.722 795.969 617.952 811.606 616.516 814.884L615.704 815.352L614.6 814.797C614.13 810.864 621.463 797.043 623.391 792.631Z"/>
	<path fill="#5576B9" d="M826.158 318.236C835.347 319.443 844.37 322.244 853.169 325.088C888.809 336.611 920.185 356.153 943.233 386.081C966.932 416.856 980.712 456.711 975.636 495.802C973.993 508.45 970.289 520.489 967.519 532.894Q966.827 536.073 966.273 539.279Q965.719 542.484 965.303 545.711Q964.887 548.937 964.61 552.179Q964.333 555.42 964.195 558.67Q964.058 561.921 964.06 565.174Q964.063 568.427 964.205 571.677Q964.348 574.927 964.629 578.168Q964.911 581.409 965.332 584.635Q965.811 588.468 966.469 592.275Q967.127 596.081 967.962 599.853Q968.797 603.625 969.807 607.353Q970.817 611.082 972 614.759Q973.183 618.436 974.537 622.054Q975.89 625.672 977.411 629.223Q978.933 632.774 980.618 636.25Q982.303 639.726 984.149 643.119C991.826 657.029 998.622 666.368 1004.09 682.131C1031.93 762.308 966.709 849.753 906.171 896.049C902.343 898.976 897.483 903.385 892.747 904.511C887.58 905.74 831.176 905.301 825.276 904.589C836.154 903.851 847.383 904.484 858.305 904.297L857.646 904.206C853.205 903.556 848.765 903.569 844.287 903.505C845.159 890.42 847.542 877.321 849.466 864.353C850.641 856.436 851.364 848.341 852.732 840.48C852.915 839.431 852.952 839.301 852.674 838.217L851.029 837.804L851.221 837.611C851.335 836.185 851.462 835.263 852.068 833.937L854.302 833.419C853.168 827.852 856.336 814.454 857.24 808.415L866.205 744.204C867.788 732.39 870.681 719.719 869.976 707.811C869.427 698.559 866.635 689.308 862.39 681.094C853.081 663.079 837.904 652.493 818.887 646.458C825.467 632.234 832.412 618.087 837.867 603.386C873.538 507.259 868.85 411.251 826.158 318.236Z"/>
	<path fill="#FEFEFE" d="M852.068 833.937L854.302 833.419C854.841 834.649 855.156 835.224 854.907 836.597C853.807 837.579 853.225 837.702 851.705 837.646C851.544 837.64 851.383 837.622 851.221 837.611C851.335 836.185 851.462 835.263 852.068 833.937Z"/>
	<path fill="#5576B9" d="M127.535 903.868C127.102 903.669 127.037 903.652 126.568 903.361C118.53 898.392 110.794 891.298 103.549 885.237C60.7551 849.435 27.2712 803.054 17.3443 747.308C14.2331 729.837 13.228 713.839 16.9797 696.295C21.3235 675.981 30.1981 661.763 40.2702 644.164C56.9031 615.101 64.7513 578.536 60.0976 545.225C58.5632 534.241 55.1758 523.602 52.7908 512.788C44.3483 474.509 51.1772 431.84 72.5585 398.656C95.3275 363.318 127.611 338.27 167.573 325.282C177.55 322.04 187.755 319.847 197.985 317.589Q196.478 320.775 195.033 323.989Q193.588 327.203 192.206 330.444Q190.823 333.686 189.503 336.953Q188.184 340.221 186.928 343.513Q185.671 346.806 184.479 350.122Q183.287 353.438 182.159 356.776Q181.03 360.115 179.967 363.475Q178.904 366.834 177.906 370.214Q176.908 373.594 175.975 376.992Q175.042 380.39 174.175 383.806Q173.309 387.222 172.508 390.654Q171.707 394.085 170.973 397.532Q170.239 400.979 169.572 404.439Q168.904 407.899 168.304 411.372Q167.704 414.844 167.171 418.327Q166.638 421.811 166.172 425.304Q165.706 428.797 165.308 432.298Q164.91 435.8 164.58 439.308Q164.249 442.817 163.987 446.331Q163.724 449.845 163.53 453.364Q163.336 456.882 163.209 460.404Q163.083 463.926 163.024 467.449Q162.966 470.973 162.976 474.497Q162.986 478.021 163.064 481.544Q163.142 485.067 163.287 488.588Q163.433 492.109 163.648 495.626Q163.862 499.144 164.144 502.656Q164.425 506.169 164.775 509.675Q165.125 513.182 165.543 516.681Q165.96 520.18 166.445 523.671Q166.93 527.161 167.483 530.642Q168.035 534.122 168.655 537.591C171.811 555.749 175.987 573.933 182.17 591.317Q187.229 605.447 193.279 619.181C188.009 630.317 185.948 640.214 186.485 652.547C169.652 665.135 158.014 682.735 155.007 703.751Q154.467 707.801 154.344 711.885Q154.222 715.97 154.518 720.045C155.434 731.705 168.755 829.715 170.379 831.828C170.477 831.955 170.608 832.052 170.723 832.165L172.454 831.94C172.681 833.447 172.969 834.89 172.908 836.417L171.015 836.485C170.166 838.493 179.377 896.767 180.113 903.526Q163.679 903.648 147.246 903.463C140.856 903.404 133.84 902.737 127.535 903.868Z"/>
	<path fill="#FEFEFE" d="M172.454 831.94C172.681 833.447 172.969 834.89 172.908 836.417L171.015 836.485L169.789 835.959L169.239 834.496C169.585 833.075 169.569 833.055 170.723 832.165L172.454 831.94Z"/>
	<path fill="#F16F6E" d="M376.631 642.018C405.236 652.748 434.753 656.421 448.844 687.428C454.769 700.465 459.095 714.571 464.074 728.022L487.874 791.097C493.484 806.279 499.426 821.351 504.76 836.632C506.796 842.467 509.399 848.677 510.601 854.738C512.026 861.932 511.642 869.459 509.04 876.33C505.558 885.523 499.28 894.332 490.01 898.322C480.614 902.365 468.881 902.187 459.509 898.252Q458.179 897.686 456.888 897.034Q455.597 896.383 454.351 895.65Q453.105 894.916 451.909 894.103Q450.713 893.29 449.573 892.402Q448.432 891.513 447.352 890.553Q446.271 889.592 445.255 888.564Q444.239 887.535 443.292 886.443Q442.344 885.35 441.47 884.199C435.05 875.67 431.135 863.809 426.853 854.027L408.168 811.439C405.966 806.407 404.03 799.949 401.187 795.303C400.652 794.43 400.004 793.861 399.116 793.378L398.535 793.688C398.504 798.417 431.706 872.076 435.888 880.041C437.918 883.907 440.34 887.216 443.424 890.311C449.421 896.33 456.029 899.509 463.877 902.487Q390.455 901.807 317.029 902.107Q249.919 901.746 182.814 902.571C179.642 880.563 177.039 858.26 172.908 836.417C172.969 834.89 172.681 833.447 172.454 831.94L161.631 754.233C159.654 739.899 155.579 721.163 157.025 707.037C158.39 693.689 163.93 680.577 172.097 669.98C176.195 664.664 181.104 659.361 186.751 655.672C187.795 669.719 189.911 683.974 195.79 696.92C201.121 708.66 211.373 719.343 212.577 732.582C214.908 758.209 190.291 765.191 194.68 789.323C195.823 795.612 198.667 801.226 202.716 806.136Q203.533 807.127 204.402 808.073Q206.101 809.914 207.993 811.556C212.02 815.046 216.986 818.11 222.233 819.284C230.682 821.175 240.148 820.431 248.769 820.437L284.575 820.429L311.151 820.386C317.472 820.422 323.969 820.754 330.264 820.231C343.671 819.116 355.045 813.759 363.778 803.366Q364.461 802.569 365.102 801.738Q365.744 800.908 366.342 800.045Q366.941 799.183 367.494 798.292Q368.048 797.4 368.556 796.481Q369.064 795.563 369.524 794.62Q369.985 793.677 370.397 792.711Q370.808 791.746 371.171 790.761Q371.533 789.776 371.845 788.773Q372.157 787.771 372.417 786.755Q372.677 785.738 372.886 784.709Q373.094 783.681 373.25 782.643Q373.406 781.605 373.509 780.56Q373.612 779.516 373.661 778.467Q373.711 777.419 373.707 776.369Q373.703 775.32 373.646 774.272Q373.589 773.224 373.479 772.18C371.95 756.191 360.336 743.68 361.423 727.18C362.029 717.986 366.256 710.572 370.87 702.833C384.024 680.774 390.275 665.599 376.631 642.018Z"/>
	<path fill="#FEFEFE" d="M511.836 121.243C562.253 120.405 612.506 132.396 658.181 153.406C723.583 183.49 779.483 237.192 814.028 300.18C823.903 318.187 831.685 336.953 838.759 356.204C862.971 422.091 865.879 499.229 847.116 566.844C842.676 582.844 837.326 598.961 830.907 614.279C826.449 624.915 821.275 635.307 816.436 645.781Q799.168 640.908 782.058 635.509C773.429 632.797 764.588 629.551 755.736 627.736C755.045 615.635 754.906 603.338 753.444 591.311C771.69 573.556 785.269 550.815 787.497 524.988C790.014 495.825 781.184 473.394 762.556 451.36C766.675 438.422 769.723 425.867 770.642 412.25C772.852 379.487 762.199 345.92 740.523 321.165C714.446 291.383 683.284 279.264 644.555 276.554C644.295 264.032 640.662 250.362 636.413 238.556C624.6 205.729 599.011 179.242 567.647 164.515C554.704 158.304 540.045 154.156 525.798 152.615C490.086 148.753 454.712 160.13 427.004 182.698C398.167 206.185 383.18 240.055 379.403 276.429Q376.424 276.472 373.451 276.649Q370.477 276.826 367.514 277.136Q364.551 277.446 361.605 277.889Q358.66 278.331 355.736 278.906Q352.813 279.48 349.919 280.185Q347.025 280.89 344.165 281.725Q341.305 282.559 338.486 283.521Q335.666 284.483 332.893 285.57Q331.415 286.157 329.952 286.78Q328.488 287.402 327.041 288.061Q325.594 288.72 324.163 289.415Q322.733 290.11 321.32 290.839Q319.907 291.569 318.512 292.334Q317.118 293.098 315.743 293.897Q314.368 294.696 313.013 295.528Q311.658 296.361 310.324 297.227Q308.99 298.093 307.678 298.991Q306.366 299.89 305.076 300.821Q303.787 301.752 302.521 302.714Q301.255 303.677 300.013 304.67Q298.772 305.663 297.555 306.687Q296.338 307.711 295.147 308.765Q293.956 309.819 292.791 310.902Q291.626 311.984 290.489 313.096Q289.351 314.207 288.242 315.346Q287.132 316.485 286.051 317.652Q284.97 318.818 283.918 320.011Q282.866 321.203 281.844 322.422Q280.822 323.64 279.83 324.883Q278.838 326.126 277.878 327.394Q276.917 328.661 275.988 329.952Q275.06 331.243 274.163 332.556Q273.266 333.87 272.402 335.205Q271.538 336.54 270.708 337.896Q269.877 339.252 269.081 340.629Q268.284 342.005 267.521 343.4Q266.759 344.796 266.031 346.21Q265.303 347.624 264.611 349.056Q263.918 350.487 263.262 351.936Q262.605 353.384 261.984 354.848C249.676 383.73 247.424 418.811 259.294 448.245C231.439 477.951 231.633 500.352 231.515 538.653C231.481 549.468 231.233 560.399 227.527 570.694C222.969 583.358 212.896 592.004 204.494 602.066C200.781 606.512 197.694 611.206 194.713 616.155Q192.942 612.056 191.275 607.913Q189.608 603.771 188.046 599.588Q186.484 595.405 185.027 591.183Q183.571 586.962 182.221 582.706Q180.871 578.45 179.629 574.161Q178.386 569.872 177.252 565.553Q176.118 561.234 175.093 556.888Q174.067 552.542 173.152 548.171Q172.236 543.801 171.431 539.409Q170.625 535.017 169.931 530.606Q169.236 526.195 168.653 521.768Q168.069 517.341 167.597 512.9Q167.125 508.46 166.765 504.009Q166.405 499.559 166.157 495.1Q165.908 490.642 165.773 486.179Q165.637 481.715 165.613 477.25Q165.548 472.889 165.59 468.528Q165.632 464.166 165.782 459.807Q165.932 455.448 166.19 451.094Q166.447 446.74 166.812 442.394Q167.178 438.048 167.65 433.712Q168.122 429.376 168.701 425.053Q169.281 420.73 169.967 416.423Q170.652 412.115 171.445 407.826Q172.237 403.537 173.134 399.269Q174.032 395.001 175.035 390.756Q176.038 386.512 177.145 382.293Q178.253 378.074 179.464 373.884Q180.675 369.694 181.99 365.536Q183.304 361.377 184.721 357.252Q186.138 353.127 187.656 349.038Q189.174 344.949 190.793 340.899Q192.412 336.849 194.13 332.84Q195.848 328.831 197.665 324.866Q199.482 320.901 201.396 316.982Q203.31 313.063 205.321 309.192Q207.331 305.321 209.436 301.502Q211.542 297.682 213.741 293.915Q215.94 290.149 218.231 286.437Q220.523 282.726 222.905 279.073Q225.288 275.419 227.759 271.826Q230.231 268.233 232.791 264.701Q235.351 261.17 237.998 257.703Q240.644 254.236 243.375 250.835Q246.106 247.435 248.921 244.103Q251.735 240.771 254.631 237.509Q257.527 234.248 260.502 231.059Q263.478 227.87 266.531 224.755Q268.928 222.313 271.372 219.918Q273.816 217.523 276.307 215.177Q278.798 212.831 281.334 210.534Q283.87 208.237 286.451 205.99Q289.032 203.744 291.657 201.548Q294.281 199.352 296.948 197.209Q299.616 195.065 302.324 192.975Q305.033 190.884 307.783 188.847Q310.532 186.809 313.321 184.827Q316.109 182.844 318.937 180.916Q321.764 178.989 324.628 177.117Q327.493 175.245 330.393 173.43Q333.294 171.615 336.23 169.857Q339.166 168.099 342.135 166.399Q345.105 164.699 348.108 163.058Q351.11 161.417 354.145 159.835Q357.179 158.253 360.243 156.731Q363.308 155.209 366.402 153.748Q369.496 152.286 372.618 150.886Q375.74 149.485 378.889 148.146Q382.038 146.808 385.213 145.531Q388.388 144.254 391.587 143.04Q394.786 141.826 398.008 140.674Q401.231 139.523 404.475 138.436Q407.719 137.348 410.984 136.324Q414.25 135.301 417.534 134.341Q420.819 133.382 424.121 132.487Q427.424 131.592 430.744 130.763Q434.064 129.933 437.399 129.169Q440.734 128.404 444.084 127.706Q447.434 127.007 450.797 126.374Q454.159 125.742 457.534 125.175C475.574 122.312 493.598 121.471 511.836 121.243Z"/>
	<path fill="#FEFEFE" d="M511.711 422.416C512.78 423.623 514.033 435.943 514.661 438.557C517.788 451.585 522.787 465.122 529.584 476.7C545.619 504.013 572.16 526.884 602.446 536.896Q609.52 539.215 616.804 540.752C619.84 541.374 624.299 541.586 627.082 542.781C628.258 543.285 628.258 543.604 628.639 544.725C626.387 550.075 615.168 551.427 610.607 555.62C608.937 557.155 608.024 558.605 607.995 560.913C607.97 562.894 608.748 564.575 610.186 565.927C614.782 570.251 622.083 570.221 627.979 570.175C627.878 580.619 625.758 595.375 632.219 604.183C635.787 609.048 641.407 611.867 647.292 612.752C655.642 614.008 661.654 610.815 668.107 606.021C671.012 608.04 673.775 610.356 676.572 612.527C676.628 617.659 676.581 622.799 676.585 627.932C664.444 631.264 652.363 636.625 640.51 640.97C627.911 645.588 614.255 649.477 602.267 655.447C579.439 666.814 572.127 684.148 564.223 706.869C561.247 715.424 558.058 723.897 555.154 732.48C547.438 732.641 539.973 733.523 533.709 738.532C529.258 742.09 526.579 746.739 524.86 752.081C521.792 761.615 521.468 773.023 520.206 782.991Q516.154 814.666 512.559 846.397L511.819 840.283C509.549 822.805 506.175 805.451 503.634 788.002C502.128 777.654 500.849 760.239 497.995 751.092C496.49 746.272 494.136 742.247 490.29 738.911C483.996 733.451 476.795 732.552 468.867 733.093C455.263 699.415 450.949 664.863 411.787 651.371C401.865 647.952 383.121 643.158 374.807 637.971C362.124 630.059 351.877 612.558 348.256 598.267C355.149 605.663 363.592 611.56 374.009 612.138C379.735 612.455 385.541 610.799 389.755 606.796C398.75 598.251 396.324 581.01 396.446 569.527C402.143 569.726 408.702 570.096 413.51 566.459C415.21 565.173 416.493 563.349 416.636 561.176C417.325 550.689 400.369 551.529 396.66 546.703C395.956 545.787 396.013 545.537 396.108 544.456C397.871 541.986 414.961 539.126 419.099 537.66C434.028 532.369 448.119 525.263 460.476 515.267Q461.806 514.208 463.11 513.116Q464.414 512.024 465.691 510.9Q466.968 509.776 468.216 508.621Q469.465 507.466 470.684 506.281Q471.904 505.096 473.094 503.881Q474.285 502.666 475.445 501.422Q476.604 500.178 477.733 498.906Q478.862 497.634 479.96 496.335Q481.057 495.035 482.122 493.709Q483.187 492.383 484.219 491.031Q485.251 489.679 486.249 488.302Q487.247 486.926 488.212 485.524Q489.176 484.123 490.105 482.699Q491.034 481.275 491.928 479.828Q492.822 478.381 493.681 476.913Q494.539 475.444 495.36 473.955Q496.182 472.466 496.967 470.957Q497.752 469.448 498.499 467.92Q499.246 466.393 499.956 464.847Q500.665 463.301 501.337 461.738Q502.008 460.176 502.64 458.597Q503.273 457.018 503.867 455.424Q504.46 453.831 505.014 452.223Q505.568 450.615 506.082 448.993Q506.597 447.372 507.071 445.739Q507.545 444.106 507.979 442.461Q508.413 440.817 508.806 439.162Q509.199 437.507 509.552 435.843Q509.904 434.18 510.215 432.508Q510.527 430.836 510.797 429.156Q511.067 427.477 511.295 425.792Q511.524 424.106 511.711 422.416Z"/>
	<path fill="#D1E1DC" d="M510.398 583.476C512.053 583.583 513.923 583.913 515.209 585.031C518.255 587.68 552.57 649.832 552.843 654.187C552.99 656.523 552.623 659.325 550.896 661.052C549.321 662.625 547.115 663.454 544.969 663.878C538.342 665.189 521.743 664.328 514.125 664.354C501.614 664.32 488.39 665.16 475.993 663.86C474.587 662.99 473.154 661.993 472.153 660.656C470.504 658.456 470.178 655.961 470.746 653.302C471.326 650.587 499.652 598.021 503.402 592.012C505.327 588.927 507.201 585.388 510.398 583.476Z"/>
	<path fill="#5576B9" d="M502.641 154.693C503.689 154.539 503.327 154.565 504.339 154.518Q505.946 154.432 507.555 154.385Q509.164 154.338 510.774 154.331Q512.383 154.323 513.992 154.355Q515.602 154.387 517.21 154.459Q518.818 154.53 520.423 154.641Q522.029 154.752 523.632 154.902Q525.234 155.052 526.833 155.242Q528.431 155.431 530.025 155.659Q531.618 155.888 533.205 156.155Q534.792 156.422 536.372 156.729Q537.953 157.035 539.525 157.38Q541.097 157.724 542.66 158.107Q544.224 158.491 545.777 158.912Q547.331 159.333 548.873 159.793Q550.416 160.252 551.947 160.749Q553.478 161.246 554.996 161.78Q556.515 162.314 558.019 162.886Q559.524 163.457 561.014 164.065Q562.505 164.673 563.98 165.317Q565.455 165.962 566.914 166.642Q568.372 167.322 569.814 168.038Q571.256 168.754 572.679 169.505Q574.103 170.256 575.508 171.041Q576.913 171.827 578.298 172.646Q579.683 173.466 581.048 174.32Q582.413 175.173 583.756 176.059Q585.1 176.946 586.421 177.865Q587.742 178.784 589.041 179.736Q590.339 180.687 591.614 181.67Q592.888 182.653 594.139 183.666Q595.389 184.68 596.614 185.724Q597.839 186.768 599.038 187.842C624.114 210.57 640.418 242.98 642.061 276.963C618.938 276.842 593.566 284.631 573.997 296.767C541.125 317.152 522.619 346.04 513.893 383.208L512.454 392.687C510.651 386.787 510.132 380.383 508.495 374.373C502.406 352.02 491.222 331.691 474.835 315.229Q473.691 314.091 472.521 312.982Q471.35 311.872 470.153 310.792Q468.956 309.711 467.733 308.659Q466.51 307.608 465.261 306.586Q464.013 305.564 462.741 304.573Q461.468 303.582 460.172 302.622Q458.876 301.662 457.557 300.734Q456.238 299.805 454.897 298.909Q453.556 298.013 452.194 297.15Q450.831 296.286 449.449 295.456Q448.066 294.626 446.663 293.829Q445.261 293.033 443.839 292.27Q442.418 291.508 440.978 290.78Q439.539 290.052 438.082 289.36Q436.626 288.667 435.153 288.01Q433.68 287.353 432.191 286.731Q430.703 286.11 429.2 285.525Q427.697 284.94 426.18 284.391Q424.663 283.843 423.134 283.331Q421.604 282.819 420.063 282.345Q418.521 281.87 416.968 281.433Q415.416 280.996 413.853 280.596Q412.29 280.197 410.719 279.836Q409.147 279.474 407.566 279.151Q405.986 278.828 404.399 278.543Q402.811 278.258 401.217 278.011Q399.623 277.765 398.024 277.557Q396.424 277.349 394.82 277.18Q393.216 277.011 391.608 276.881Q390.001 276.751 388.39 276.66Q386.78 276.568 385.168 276.516Q383.556 276.464 381.943 276.451C384.988 249.254 393.34 224.057 410.72 202.57C434.412 173.279 465.57 158.629 502.641 154.693Z"/>
	<path fill="#FEFEFE" d="M644.716 279.406C658.149 279.444 670.973 281.782 683.686 286.061Q685.14 286.54 686.582 287.055Q688.024 287.57 689.452 288.121Q690.881 288.672 692.295 289.258Q693.71 289.843 695.109 290.464Q696.509 291.085 697.893 291.74Q699.276 292.395 700.643 293.085Q702.011 293.774 703.36 294.497Q704.71 295.22 706.041 295.976Q707.372 296.732 708.684 297.521Q709.996 298.31 711.289 299.131Q712.581 299.952 713.852 300.805Q715.124 301.658 716.373 302.542Q717.623 303.427 718.851 304.341Q720.078 305.256 721.283 306.201Q722.488 307.146 723.668 308.121Q724.849 309.095 726.005 310.099Q727.162 311.102 728.293 312.134Q729.424 313.166 730.529 314.226Q731.634 315.285 732.713 316.372Q733.791 317.459 734.842 318.572Q735.894 319.685 736.917 320.823Q737.941 321.962 738.935 323.126Q739.93 324.289 740.896 325.477Q741.862 326.666 742.798 327.877Q743.734 329.089 744.639 330.323Q745.545 331.557 746.42 332.814Q747.295 334.07 748.138 335.348Q748.982 336.626 749.793 337.924Q750.605 339.222 751.384 340.54Q752.163 341.858 752.909 343.195Q753.655 344.532 754.368 345.887Q755.081 347.242 755.76 348.614C771.211 380.083 771.794 416.352 760.585 449.19C743.724 435.148 725.643 427.631 703.494 427.447C679.924 427.251 659.951 435.784 643.298 452.393C624.663 470.978 628.347 485.192 628.307 509.25Q628.106 524.687 628.241 540.124C606.418 537.441 586.676 529.557 568.896 516.584C536.193 492.723 520.202 460.551 514.009 421.458C547.934 419.249 578.209 406.751 602.815 383.028Q604.783 381.134 606.673 379.162Q608.563 377.19 610.373 375.145Q612.182 373.099 613.909 370.983Q615.635 368.866 617.276 366.683Q618.916 364.499 620.468 362.251Q622.02 360.003 623.48 357.695Q624.941 355.388 626.308 353.023Q627.675 350.658 628.946 348.241Q630.217 345.824 631.391 343.357Q632.564 340.891 633.638 338.38Q634.712 335.868 635.685 333.316Q636.657 330.764 637.527 328.175Q638.396 325.586 639.162 322.964Q639.927 320.342 640.587 317.691Q641.247 315.041 641.8 312.366Q642.353 309.692 642.799 306.997C644.241 297.782 644.561 288.706 644.716 279.406Z"/>
	<path fill="#FEFEFE" d="M374.173 279.205L379.352 278.968C379.087 315.627 389.613 349.775 414.568 377.204Q415.703 378.447 416.869 379.662Q418.034 380.877 419.23 382.062Q420.425 383.248 421.649 384.403Q422.873 385.559 424.126 386.684Q425.378 387.809 426.658 388.903Q427.937 389.997 429.243 391.059Q430.55 392.121 431.882 393.15Q433.214 394.18 434.571 395.176Q435.928 396.172 437.31 397.135Q438.691 398.097 440.095 399.025Q441.5 399.953 442.927 400.846Q444.354 401.739 445.803 402.597Q447.252 403.454 448.721 404.276Q450.191 405.097 451.68 405.882Q453.169 406.667 454.677 407.415Q456.186 408.163 457.712 408.874Q459.238 409.585 460.781 410.257Q462.325 410.93 463.884 411.564Q465.443 412.199 467.018 412.794Q468.593 413.39 470.181 413.947Q471.77 414.503 473.372 415.02Q474.974 415.538 476.589 416.015Q478.203 416.493 479.829 416.93Q481.454 417.368 483.09 417.765Q484.726 418.162 486.372 418.519Q488.017 418.876 489.67 419.192Q491.324 419.508 492.985 419.783Q494.646 420.058 496.313 420.293Q497.98 420.527 499.652 420.719Q501.325 420.912 503.001 421.064Q504.678 421.215 506.358 421.325Q508.038 421.435 509.72 421.504C508.365 427.035 507.83 432.785 506.555 438.351C502.669 455.32 494.819 471.866 484.783 486.012C463.167 516.482 432.832 533.997 396.291 540.337C395.918 531.955 396.11 523.515 396.117 515.125C395.97 505.472 397.474 481.601 394.835 473.627C393.234 468.79 390.103 464.291 386.966 460.331Q386.278 459.462 385.569 458.611Q384.86 457.759 384.13 456.925Q383.4 456.091 382.65 455.275Q381.9 454.459 381.131 453.661Q380.361 452.864 379.572 452.085Q378.783 451.307 377.975 450.548Q377.168 449.789 376.342 449.051Q375.516 448.312 374.672 447.593Q373.828 446.875 372.967 446.177Q372.105 445.48 371.228 444.803Q370.349 444.127 369.455 443.472Q368.561 442.818 367.651 442.185Q366.741 441.552 365.816 440.942Q364.891 440.332 363.951 439.745Q363.011 439.157 362.057 438.593Q361.103 438.029 360.136 437.488Q359.168 436.948 358.188 436.431Q357.208 435.914 356.215 435.421Q355.222 434.928 354.218 434.46Q353.213 433.992 352.198 433.548Q351.182 433.104 350.156 432.686Q349.13 432.267 348.094 431.874Q347.058 431.48 346.012 431.112Q344.967 430.744 343.913 430.402Q342.859 430.059 341.797 429.743Q340.735 429.427 339.665 429.136Q338.596 428.846 337.519 428.582Q336.443 428.318 335.36 428.08Q334.278 427.842 333.19 427.631Q332.102 427.42 331.009 427.235Q329.916 427.05 328.82 426.893Q327.723 426.735 326.622 426.604C302.226 423.797 280.094 431.372 261.065 446.506C257.192 436.988 255.053 426.075 254.297 415.854Q254.167 414.283 254.075 412.709Q253.984 411.135 253.933 409.56Q253.881 407.984 253.869 406.408Q253.857 404.831 253.885 403.255Q253.912 401.679 253.979 400.104Q254.046 398.529 254.152 396.956Q254.259 395.383 254.405 393.813Q254.55 392.244 254.735 390.678Q254.92 389.112 255.145 387.552Q255.369 385.992 255.632 384.437Q255.896 382.883 256.198 381.336Q256.5 379.789 256.841 378.249Q257.182 376.71 257.561 375.18Q257.94 373.65 258.358 372.13Q258.776 370.61 259.231 369.1Q259.687 367.591 260.18 366.094Q260.673 364.597 261.204 363.112Q261.734 361.628 262.302 360.157Q262.87 358.686 263.474 357.23Q264.078 355.774 264.719 354.334Q265.359 352.893 266.036 351.469Q266.712 350.045 267.424 348.639Q268.136 347.232 268.883 345.844Q269.63 344.456 270.412 343.087Q271.194 341.718 272.009 340.369Q272.825 339.02 273.674 337.691Q274.523 336.363 275.406 335.057Q276.288 333.75 277.203 332.466Q278.117 331.182 279.064 329.922Q280.01 328.661 280.988 327.425Q281.966 326.188 282.975 324.977Q283.983 323.765 285.022 322.579C308.165 296.116 339.306 281.542 374.173 279.205Z"/>
	<path fill="#F16F6E" d="M381.683 279.015C386.173 279.139 390.718 279.307 395.187 279.757Q396.78 279.927 398.369 280.137Q399.958 280.346 401.541 280.595Q403.124 280.844 404.7 281.132Q406.276 281.42 407.845 281.747Q409.414 282.074 410.974 282.44Q412.534 282.806 414.085 283.21Q415.635 283.615 417.175 284.057Q418.715 284.5 420.244 284.981Q421.773 285.461 423.289 285.98Q424.805 286.498 426.308 287.054Q427.811 287.61 429.3 288.202Q430.789 288.795 432.262 289.425Q433.736 290.054 435.193 290.72Q436.651 291.386 438.092 292.088Q439.532 292.79 440.955 293.527Q442.378 294.264 443.782 295.036Q445.186 295.809 446.57 296.616Q447.955 297.422 449.319 298.263Q450.683 299.104 452.026 299.979Q453.369 300.853 454.689 301.76Q456.01 302.668 457.308 303.608Q458.606 304.548 459.88 305.519Q461.154 306.491 462.404 307.494Q463.654 308.497 464.878 309.531Q466.103 310.565 467.301 311.628Q468.5 312.692 469.671 313.785Q470.843 314.878 471.988 316Q473.132 317.122 474.248 318.271Q475.364 319.421 476.452 320.598Q477.539 321.775 478.597 322.979Q479.655 324.182 480.682 325.412Q481.71 326.641 482.707 327.896C502.671 352.673 513.214 387.291 509.904 418.994C476.975 418.266 445.567 403.851 421.891 381.245Q420.006 379.414 418.196 377.508Q416.386 375.603 414.654 373.627Q412.922 371.651 411.27 369.607Q409.618 367.563 408.05 365.455Q406.481 363.346 404.998 361.177Q403.515 359.007 402.12 356.78Q400.725 354.553 399.421 352.272Q398.116 349.991 396.904 347.659Q395.691 345.327 394.573 342.949Q393.455 340.571 392.434 338.15Q391.412 335.729 390.487 333.269Q389.563 330.809 388.738 328.314Q387.913 325.819 387.189 323.293Q386.464 320.767 385.842 318.214Q385.219 315.661 384.699 313.085Q384.179 310.509 383.762 307.914C382.24 298.329 381.937 288.699 381.683 279.015Z"/>
	<path fill="#D1E1DC" d="M635.779 279.701C637.842 279.41 640.068 279.53 642.156 279.489C644.382 310.946 631.717 344.633 612.402 369.152C590.28 397.235 556.928 414.226 521.761 418.439L513.947 418.689C511.724 385.932 522.205 351.873 543.333 326.618C566.898 298.451 599.475 283.044 635.779 279.701Z"/>
	<path fill="#FEFEFE" d="M389.676 468.381C391.494 470.841 392.576 473.195 393.108 476.204C394.233 482.565 393.68 489.643 393.693 496.113L393.754 528.42C393.771 535.631 393.562 542.934 394.252 550.116C399.817 551.027 407.118 552.871 411.554 556.525C412.879 557.616 414.232 559.179 414.157 561.01C414.112 562.078 413.533 562.979 412.768 563.688C408.374 567.754 399.796 567.038 394.166 567.04C393.797 575.261 395.286 589.426 393.08 596.817C391.733 601.332 388.139 605.496 383.98 607.655C378.774 610.357 372.751 610.112 367.29 608.353C357.652 605.249 350.31 598.325 345.789 589.396C345.217 572.994 346.019 556.406 345.919 539.968C339.428 537.544 334.701 533.892 331.086 527.932C326.975 521.155 324.522 511.208 326.739 503.396C327.203 501.762 327.81 500.817 329.363 500.016C330.358 499.947 331.078 499.988 331.973 500.432C339.955 504.401 345.353 518.093 348.331 525.96C362.7 507.272 374.811 486.678 389.676 468.381Z"/>
	<path fill="#FEFEFE" d="M634.547 467.76C636.882 470.198 638.809 474.222 640.646 477.1Q650.426 492.357 659.837 507.844C663.243 513.467 666.272 519.591 670.119 524.902C670.79 525.828 671.354 526.352 672.287 526.987C673.199 526.689 673.318 526.467 673.802 525.657C674.954 523.733 675.636 521.295 676.48 519.21C678.576 514.033 681.641 508.459 685.747 504.6C687.609 502.85 690.635 500.724 693.335 501.002C694.36 501.108 695.11 501.492 695.728 502.354C698.183 505.776 697.487 510.796 696.684 514.665C694.425 525.547 688.163 535.729 678.842 541.845C677.658 557.395 680.586 573.418 676.154 588.58C674.392 593.531 672.199 598.027 668.605 601.924C664.043 606.873 657.873 610.271 651.051 610.453C645.683 610.596 640.266 608.928 636.366 605.143C627.643 596.678 630.344 578.662 630.349 567.263C625.449 567.324 620.411 567.568 615.68 566.06C613.426 565.342 611.612 564.514 610.454 562.371C610.365 561.374 610.371 560.801 610.767 559.852C613.111 554.23 625.242 551.12 630.58 549.208C631.075 531.931 630.406 514.5 630.563 497.2C630.627 490.12 630.153 482.52 631.427 475.533C631.965 472.577 632.981 470.318 634.547 467.76Z"/>
	<path fill="#FEFEFE" d="M750.623 593.389L750.949 593.433C752.28 594.734 753.047 623.869 753.189 627.922Q716.783 627.279 680.375 627.749L679.503 627.468C678.015 625.018 679.129 617.616 679.293 614.529Q680.675 614.878 682.079 615.119C699 618.118 719.772 611.599 734.569 603.686C740.192 600.679 745.387 597.011 750.623 593.389Z"/>
	<path fill="#FEFEFE" d="M549.421 735.182C550.927 735.103 552.465 734.847 553.756 735.643C551.857 744.153 547.135 754.575 544.215 762.972L517.975 836.233C517.416 837.882 516.751 839.393 515.963 840.945Q518.839 812.264 522.621 783.688C523.786 774.425 524.362 764.425 526.602 755.382C527.577 751.444 529.065 747.317 531.6 744.107C536.055 738.464 542.52 736.028 549.421 735.182Z"/>
	<path fill="#FEFEFE" d="M470.55 735.705C472.094 735.515 473.647 735.479 475.202 735.512C481.078 735.637 486.85 738.559 490.788 742.855C493.669 745.999 494.961 749.109 495.993 753.14C497.555 759.237 497.996 765.775 498.822 772.014Q500.697 785.744 502.752 799.447C504.038 808.113 509.171 832.76 508.778 840.13C505.123 830.842 470.147 737.024 470.159 736.716C470.172 736.355 470.42 736.042 470.55 735.705Z"/>
	<path fill="#FEFEFE" d="M512.047 875.293Q513.077 878.082 514.207 880.832C518.542 891.101 525.611 897.851 535.895 901.969Q523.136 902.208 510.375 902.222Q498.449 902.217 486.525 901.953C488.853 901.094 491.323 900.269 493.512 899.099C502.674 894.204 508.983 885.052 512.047 875.293Z"/>
</svg>
