<?xml version="1.0" encoding="utf-8" ?>
<svg xmlns="http://www.w3.org/2000/svg" xmlns:xlink="http://www.w3.org/1999/xlink" width="1024" height="1024">
	<path fill="#FEFEFE" d="M0 0L1024 0L1024 1024L0 1024L0 0Z"/>
	<path fill="#FEFEFE" d="M377.612 248.019C382.928 248.719 388.258 249.293 393.502 247.792C409.068 243.337 412.44 218.627 419.713 205.322C428.982 188.365 444.111 175.624 462.81 170.312C492.324 161.927 519.996 172.945 545.934 186.358Q561.922 194.575 577.304 203.878C582.358 206.926 586.901 211.062 592.057 213.871L592.888 214.314C623.302 207.174 653.984 210.369 680.783 226.939C700.955 239.412 717.746 259.571 723.296 282.986C728.555 305.168 724 327.963 711.947 347.173C708.387 352.847 704.098 358.562 699.101 363.059L785.359 363.007L809.78 363.023C814.498 363.034 819.577 362.735 824.241 363.421C814.995 363.92 805.559 363.539 796.292 363.508L741.398 363.26Q725.506 363.264 709.616 363.483C702.3 363.566 694.677 363.981 687.408 363.071L434.792 362.999L362.903 362.982C353.844 362.968 339.633 362.013 331.228 362.971C325.772 363.593 321.029 365.93 317.164 369.839C313.416 373.629 311.719 377.345 310.949 382.54C309.964 389.182 310.496 396.393 310.507 403.113L310.582 439.982L310.667 568.742C307.757 570.459 304.868 572.277 301.892 573.873C288.77 548.071 271.278 517.829 242.138 508.237C237.96 506.862 233.682 506.223 229.384 505.373L230.213 496.278C239.134 488.379 237.185 477.07 238.655 466.458C241.48 464.41 244.38 461.078 244.958 457.509C245.444 454.511 244.304 451.745 242.436 449.442C237.919 443.869 229.561 440.02 222.488 439.538C219.873 439.36 217.119 439.653 214.539 440.065C207.393 433.853 199.189 429.637 189.433 430.277Q188.711 430.322 187.992 430.403Q187.273 430.484 186.559 430.6Q185.845 430.717 185.138 430.868Q184.43 431.02 183.731 431.207Q183.032 431.394 182.344 431.615Q181.655 431.836 180.978 432.091Q180.301 432.346 179.637 432.635Q178.974 432.923 178.326 433.245Q177.677 433.566 177.046 433.919Q176.414 434.272 175.801 434.655Q175.188 435.039 174.594 435.453Q174.001 435.867 173.429 436.31Q172.857 436.753 172.307 437.223Q171.758 437.694 171.233 438.192Q170.707 438.689 170.207 439.212Q169.707 439.735 169.234 440.282C161.386 449.492 162.238 464.947 161.111 466.196C160.936 466.39 147.759 468.904 145.473 469.908C135.658 474.217 130.15 487.431 131.243 497.513C132.406 508.248 139.726 518.011 148.025 524.498C150.574 526.49 153.352 528.24 156.062 530.004Q138.096 548.151 121.408 567.479C115.703 573.962 108.823 580.622 104.688 588.24Q104.155 589.208 103.685 590.208Q103.215 591.209 102.809 592.237Q102.403 593.265 102.064 594.316Q101.724 595.368 101.452 596.439Q101.18 597.51 100.977 598.597Q100.774 599.683 100.64 600.78Q100.506 601.877 100.442 602.981Q100.379 604.084 100.385 605.189C100.387 610.623 101.65 615.916 103.839 620.876C107.114 628.3 112.25 635.039 116.612 641.871C125.997 656.566 135.9 671.121 144.897 686.04C146.556 688.79 147.526 691.195 147.893 694.404C148.689 701.371 148.466 708.661 148.566 715.668Q148.784 728.872 149.224 742.07C150.159 774.058 151.537 806.183 151.616 838.18C145.555 839.362 134.19 838.484 127.52 838.461C112.404 838.409 97.0544 838.913 81.9715 838.088C92.4593 837.239 103.411 837.906 113.945 837.931C108.588 833.086 102.441 829.042 96.9324 824.336C84.0749 813.354 72.2968 799.81 62.8425 785.813C50.107 767.475 34.8459 734.245 34.6242 711.587C33.8594 705.113 33.8688 698.653 34.0886 692.15C34.5101 671.359 42.3281 650.026 54.1846 633.062C59.2027 625.882 65.0191 619.367 70.7651 612.773C75.9314 605.775 80.7768 598.998 85.1175 591.439C94.0848 570.885 94.8805 555.329 94.0463 533.279C93.7846 525.712 92.8712 518.12 92.3422 510.559Q91.0264 496.43 90.8225 482.241C90.5755 449.484 96.1086 419.998 119.788 395.948C120.048 395.691 120.304 395.431 120.574 395.185C132.764 384.056 147.727 378.229 164.213 378.583C171.091 378.731 177.945 379.756 184.822 380.066C249.162 382.963 262.044 328.714 287.006 282.926C292.722 272.444 298.839 261.628 307.793 253.544C319.052 243.378 331.03 239.405 345.996 240.145C356.983 241.513 366.996 245.193 377.612 248.019Z"/>
	<path fill="#4B71BE" d="M377.612 248.019C382.928 248.719 388.258 249.293 393.502 247.792C409.068 243.337 412.44 218.627 419.713 205.322C428.982 188.365 444.111 175.624 462.81 170.312C492.324 161.927 519.996 172.945 545.934 186.358Q561.922 194.575 577.304 203.878C582.358 206.926 586.901 211.062 592.057 213.871L592.888 214.314C623.302 207.174 653.984 210.369 680.783 226.939C700.955 239.412 717.746 259.571 723.296 282.986C728.555 305.168 724 327.963 711.947 347.173C708.387 352.847 704.098 358.562 699.101 363.059L785.359 363.007L809.78 363.023C814.498 363.034 819.577 362.735 824.241 363.421C814.995 363.92 805.559 363.539 796.292 363.508L741.398 363.26Q725.506 363.264 709.616 363.483C702.3 363.566 694.677 363.981 687.408 363.071C690.446 362.831 693.632 363.041 696.687 363.08Q701.514 358.438 705.601 353.132C719.14 335.543 726.12 313.73 723.094 291.514C719.891 267.994 705.4 247.408 686.719 233.315Q684.99 232.023 683.208 230.803Q681.427 229.584 679.597 228.439Q677.767 227.294 675.89 226.226Q674.014 225.159 672.095 224.169Q670.177 223.18 668.219 222.271Q666.261 221.362 664.267 220.535Q662.273 219.708 660.246 218.964Q658.219 218.22 656.164 217.561Q654.108 216.902 652.027 216.328Q649.946 215.755 647.842 215.268Q645.739 214.781 643.618 214.382Q641.496 213.982 639.36 213.671Q637.224 213.36 635.077 213.138Q632.929 212.916 630.775 212.782Q628.62 212.649 626.462 212.605Q624.303 212.561 622.145 212.607C612.955 212.823 603.771 214.332 594.675 215.585Q604.724 222.552 613.687 230.869C625.588 239.892 633.699 251.783 636.969 266.302C638.194 274.313 637.037 281.948 633.412 289.214C626.927 302.211 614.682 310.626 601.176 315.145C584.819 320.619 565.841 319.64 550.418 311.771C541.028 306.979 534.285 299.085 531.131 288.995C527.459 277.248 529.702 264.654 535.346 253.932C546.223 233.269 568.022 221.66 589.465 214.889C573.977 201.732 528.547 178.496 508.353 172.8C473.924 163.088 439.77 174.133 421.717 205.996C414.736 218.319 410.558 241.384 398.452 247.863C389.943 252.417 379.691 251.179 370.871 248.325C368.351 247.938 365.635 246.851 363.172 246.132C357.294 244.418 351.509 242.713 345.458 241.683C331.576 240.938 319.986 245.409 309.595 254.703C299.564 263.675 292.821 275.834 286.633 287.62C260.986 336.466 248.749 385.296 181.359 381.951C157.579 380.77 142.017 378.766 122.57 396.109C122.153 396.481 121.757 396.875 121.358 397.265C99.5422 418.553 93.0019 448.635 92.6504 478.175C92.5282 488.447 93.3804 498.652 94.1321 508.886C95.0448 518.173 96.046 527.85 96.0711 537.179C96.7566 540.239 96.6214 543.671 96.6487 546.811C96.789 562.974 93.4999 577.906 86.8555 592.631C82.7678 600.796 77.849 607.725 71.941 614.662C49.5324 640.079 35.1759 664.812 35.7643 699.87C35.9045 702.8 35.9384 705.79 36.2424 708.704C39.2891 736.391 49.0949 761.432 64.5128 784.529C78.9802 805.936 97.4746 822.379 117.825 837.938C127.882 838.032 142.043 837.004 151.616 838.18C145.555 839.362 134.19 838.484 127.52 838.461C112.404 838.409 97.0544 838.913 81.9715 838.088C92.4593 837.239 103.411 837.906 113.945 837.931C108.588 833.086 102.441 829.042 96.9324 824.336C84.0749 813.354 72.2968 799.81 62.8425 785.813C50.107 767.475 34.8459 734.245 34.6242 711.587C33.8594 705.113 33.8688 698.653 34.0886 692.15C34.5101 671.359 42.3281 650.026 54.1846 633.062C59.2027 625.882 65.0191 619.367 70.7651 612.773C75.9314 605.775 80.7768 598.998 85.1175 591.439C94.0848 570.885 94.8805 555.329 94.0463 533.279C93.7846 525.712 92.8712 518.12 92.3422 510.559Q91.0264 496.43 90.8225 482.241C90.5755 449.484 96.1086 419.998 119.788 395.948C120.048 395.691 120.304 395.431 120.574 395.185C132.764 384.056 147.727 378.229 164.213 378.583C171.091 378.731 177.945 379.756 184.822 380.066C249.162 382.963 262.044 328.714 287.006 282.926C292.722 272.444 298.839 261.628 307.793 253.544C319.052 243.378 331.03 239.405 345.996 240.145C356.983 241.513 366.996 245.193 377.612 248.019Z"/>
	<path fill="#FEFEFE" d="M590.478 216.576C597.403 218.428 604.99 226.165 610.435 230.703C621.661 241.009 632.291 251.856 635.236 267.39C635.788 273.508 635.515 278.975 633.268 284.768C628.403 297.314 617.843 306 605.716 311.201Q604.248 311.842 602.749 312.41Q601.251 312.978 599.727 313.472Q598.202 313.965 596.655 314.383Q595.109 314.801 593.543 315.142Q591.978 315.484 590.397 315.747Q588.817 316.011 587.225 316.197Q585.634 316.382 584.035 316.489Q582.436 316.596 580.834 316.624Q579.232 316.653 577.63 316.602Q576.029 316.551 574.432 316.422Q572.835 316.292 571.246 316.084Q569.657 315.876 568.081 315.59Q566.504 315.304 564.944 314.941Q563.383 314.577 561.842 314.138Q560.302 313.698 558.784 313.183Q557.267 312.668 555.777 312.079C545.841 308.037 538.068 301.267 533.972 291.211C529.852 281.097 530.427 269.694 534.727 259.746C541.971 242.986 557.438 230.317 573.778 222.956C579.224 220.503 584.944 218.806 590.478 216.576Z"/>
	<path fill="#010101" d="M310.667 568.742L310.582 439.982L310.507 403.113C310.496 396.393 309.964 389.182 310.949 382.54C311.719 377.345 313.416 373.629 317.164 369.839C321.029 365.93 325.772 363.593 331.228 362.971C339.633 362.013 353.844 362.968 362.903 362.982L434.792 362.999L687.408 363.071C694.677 363.981 702.3 363.566 709.616 363.483Q725.506 363.264 741.398 363.26L796.292 363.508C805.559 363.539 814.995 363.92 824.241 363.421C830.444 363.717 835.399 365.741 839.72 370.362C842.985 373.852 844.969 378.063 845.605 382.789C846.738 391.213 846.027 400.472 846.026 408.982L846.028 456.999L846.202 626.971L916.547 626.611C925.874 626.61 937.031 625.549 946.108 627.085C948.248 627.447 949.95 628.433 951.484 629.955C953.401 631.858 954.458 634.059 954.79 636.728C955.542 642.777 955.061 649.376 955.038 655.496L954.95 690.47L954.599 813.057L682.757 812.959L682.553 724.563Q658.646 724.438 634.74 724.68Q634.536 755.731 634.707 786.781C634.745 803.875 634.559 821.016 634.906 838.106C650.409 838.168 666.004 838.569 681.498 838.183C677.116 831.006 678.386 823.063 678.623 814.989Q708.617 815.393 738.614 815.364L865.824 815.96L921.298 816.061C930.803 816.082 940.518 815.691 949.989 816.249C952.739 816.411 956.956 816.473 958.926 818.519C961.145 820.825 961.22 824.513 961.006 827.502C960.733 831.313 959.755 834.865 958.251 838.367L983.392 838.463C987.402 838.469 991.762 838.093 995.716 838.584C996.791 838.717 997.033 838.895 997.821 839.578C997.461 840.664 997.253 840.981 996.056 841.403C993.022 842.473 951.435 841.582 944.172 841.57L797.889 841.549L341.866 841.605L145.26 841.687C122.166 841.637 99.0242 842.035 75.9378 841.719C74.4617 841.698 72.7208 841.674 71.3508 841.072C71.1516 840.985 70.9602 840.88 70.7649 840.784C70.2599 839.805 70.4675 839.742 70.6793 838.711C72.7737 837.407 79.2686 838.085 81.9715 838.088C97.0544 838.913 112.404 838.409 127.52 838.461C134.19 838.484 145.555 839.362 151.616 838.18C151.537 806.183 150.159 774.058 149.224 742.07Q148.784 728.872 148.566 715.668C148.466 708.661 148.689 701.371 147.893 694.404C147.526 691.195 146.556 688.79 144.897 686.04C135.9 671.121 125.997 656.566 116.612 641.871C112.25 635.039 107.114 628.3 103.839 620.876C101.65 615.916 100.387 610.623 100.385 605.189Q100.379 604.084 100.442 602.981Q100.506 601.877 100.64 600.78Q100.774 599.683 100.977 598.597Q101.18 597.51 101.452 596.439Q101.724 595.368 102.064 594.316Q102.403 593.265 102.809 592.237Q103.215 591.209 103.685 590.208Q104.155 589.208 104.688 588.24C108.823 580.622 115.703 573.962 121.408 567.479Q138.096 548.151 156.062 530.004C153.352 528.24 150.574 526.49 148.025 524.498C139.726 518.011 132.406 508.248 131.243 497.513C130.15 487.431 135.658 474.217 145.473 469.908C147.759 468.904 160.936 466.39 161.111 466.196C162.238 464.947 161.386 449.492 169.234 440.282Q169.707 439.735 170.207 439.212Q170.707 438.689 171.233 438.192Q171.758 437.694 172.307 437.223Q172.857 436.753 173.429 436.31Q174.001 435.867 174.594 435.453Q175.188 435.039 175.801 434.655Q176.414 434.272 177.046 433.919Q177.677 433.566 178.326 433.245Q178.974 432.924 179.637 432.635Q180.301 432.346 180.978 432.091Q181.655 431.836 182.344 431.615Q183.032 431.394 183.731 431.207Q184.43 431.02 185.138 430.868Q185.845 430.717 186.559 430.6Q187.273 430.484 187.992 430.403Q188.711 430.322 189.433 430.277C199.189 429.637 207.393 433.853 214.539 440.065C217.119 439.653 219.873 439.36 222.488 439.538C229.561 440.02 237.919 443.869 242.436 449.442C244.304 451.745 245.444 454.511 244.958 457.509C244.38 461.078 241.48 464.41 238.655 466.458C237.185 477.07 239.134 488.379 230.213 496.278L229.384 505.373C233.682 506.223 237.96 506.862 242.138 508.237C271.278 517.829 288.77 548.071 301.892 573.873C304.868 572.277 307.757 570.459 310.667 568.742Z"/>
	<path fill="#FEFEFE" d="M807.887 630.914C809.936 631.024 812.296 631.359 813.55 633.233C814.216 634.228 814.412 635.071 814.006 636.233C813.562 637.505 812.351 638.013 811.252 638.562C809.172 638.619 806.655 638.822 805.127 637.089C804.634 636.529 804.299 635.809 804.403 635.066C804.686 633.039 806.329 631.973 807.887 630.914Z"/>
	<path fill="#FEFEFE" d="M397.387 528.908C397.513 528.989 397.65 529.054 397.765 529.15C398.799 530.015 398.762 530.152 398.794 531.43C397.138 534.415 389.356 538.936 386.051 540.284L382.631 536.795C387.52 534.25 392.182 530.73 397.387 528.908Z"/>
	<path fill="#FEFEFE" d="M205.634 492.844C207.024 493.899 208.423 494.982 209.919 495.885C215.541 499.275 220.511 499.132 226.663 497.721C226.514 502.136 226.391 504.632 223.863 508.43C221.671 510.252 219.426 511.644 216.968 513.068C212.499 510.701 209.125 507.915 205.51 504.393C205.422 500.528 205.456 496.707 205.634 492.844Z"/>
	<path fill="#FEFEFE" d="M160.757 584.406C161.47 587.572 153.118 621.508 151.745 628.072L149.072 622.283C146.615 617.581 143.864 612.875 142.156 607.842C145.362 599.956 154.837 590.698 160.757 584.406Z"/>
	<path fill="#FEFEFE" d="M211.218 759.875C211.681 761.348 211.889 762.884 212.077 764.413C212.888 771.012 220.079 836.215 219.586 837.308C219.463 837.581 219.219 837.781 219.035 838.017L217.125 838.112L207.485 838.11C208.187 812.11 209.341 785.813 211.218 759.875Z"/>
	<path fill="#FEFEFE" d="M364.855 526.597C365.088 526.669 365.327 526.726 365.556 526.813C369.24 528.203 370.643 537.551 372.406 541.058C372.49 541.226 372.58 541.391 372.666 541.557C374.787 540.38 376.814 538.984 378.86 537.678C381.95 540.625 384.967 544.262 387.3 547.843C389.146 550.677 390.756 554.055 389.913 557.509C388.458 563.465 380.616 566.893 375.701 569.693C372.758 571.161 369.976 573.021 367.182 574.755C362.388 567.378 357.198 560.251 352.237 552.984C360.462 544.996 363.277 537.868 364.855 526.597Z"/>
	<path fill="#FEFEFE" d="M214.203 452.572C225.219 451.987 225.732 458.407 234.632 460.974C234.664 468.711 235.708 478.982 232.729 486.187C230.919 490.567 228.046 492.489 223.816 494.295C221.29 494.963 218.629 495.294 216.082 494.565C211.876 493.362 208.865 490.146 206.942 486.328C204.347 481.176 201.444 464.17 204.065 459.387C205.325 457.086 211.817 453.309 214.203 452.572Z"/>
	<path fill="#FEFEFE" d="M490.06 724.575L630.932 724.636L630.966 837.943L490.305 837.978C489.529 824.387 490.009 810.544 490.009 796.92L490.06 724.575Z"/>
	<path fill="#010101" d="M556.518 749.59C560.328 749.285 563.831 749.674 567.32 751.343C572.423 753.785 576.265 758.471 578.024 763.812C579.947 769.65 579.422 776.364 576.433 781.757C573.383 787.261 568.59 789.95 562.752 791.607C557.69 791.9 553.504 791.515 549.064 788.74Q548.633 788.472 548.215 788.182Q547.798 787.893 547.395 787.584Q546.992 787.274 546.605 786.945Q546.218 786.617 545.847 786.269Q545.477 785.922 545.124 785.556Q544.771 785.191 544.436 784.809Q544.102 784.427 543.786 784.029Q543.471 783.631 543.175 783.217Q542.88 782.804 542.605 782.377Q542.33 781.95 542.077 781.51Q541.823 781.07 541.591 780.618Q541.36 780.166 541.151 779.703Q540.942 779.24 540.756 778.767Q540.57 778.294 540.407 777.813Q540.244 777.332 540.105 776.844Q539.967 776.355 539.852 775.86C538.528 770.107 539.532 763.714 542.675 758.705C545.941 753.503 550.672 750.895 556.518 749.59Z"/>
	<path fill="#4B71BE" d="M169.111 664.576L265.888 664.693Q270.419 751.356 276.318 837.939Q249.962 837.837 223.605 838.008C222.652 819.226 219.707 800.176 217.654 781.465C216.886 773.701 214.32 743.75 211.663 738.85C210.465 738.318 210.401 738.373 209.112 738.67C208.837 739 208.46 739.267 208.288 739.66C207.333 741.852 203.917 827.77 203.452 838.014L155.399 837.97C154.036 822.962 154.728 807.458 154.338 792.372Q152.64 741.489 152.17 690.58C157.39 681.698 163.412 673.163 169.111 664.576Z"/>
	<path fill="#FEFEFE" d="M200.176 509.167C205.591 508.583 209.167 513.485 213.908 515.442C215.539 516.116 217.456 516.3 219.197 516.529C222.679 514.505 225.878 511.831 229.049 509.357C230.858 509.493 232.663 509.654 234.449 509.979C258.486 514.364 276.23 536.052 287.846 555.98C292.213 563.472 295.849 571.835 300.827 578.906C300.944 579.073 301.065 579.236 301.183 579.401C315.675 569.49 331.703 561.899 346.894 553.128C353.364 559.429 359.338 568.955 363.642 576.92C355.579 582.417 347.087 587.368 338.779 592.486C328.878 598.585 318.992 604.954 308.441 609.896C301.269 613.255 293.756 615.169 286.015 612.181C276.723 608.593 268.469 595.192 265.722 585.853C264.887 583.015 265.055 579.748 263.847 577.09C262.784 576.508 262.973 576.329 261.722 576.68C260.749 578.344 260.772 579.974 260.801 581.855C260.934 590.51 262.746 599.389 263.708 607.996Q266.469 634.477 269.623 660.914C245.513 661.207 221.364 660.927 197.25 660.928Q183.22 660.996 169.192 660.756C169.152 660.657 169.111 660.559 169.071 660.46C165.434 651.263 159.505 642.288 154.935 633.469C156.434 619.953 160.289 606.157 163.143 592.837C164.186 587.969 165.713 582.758 165.97 577.793C166.035 576.528 165.946 576.603 165.098 575.656L164.214 575.718C158.663 580.056 141.788 598.901 139.343 605.039C138.561 607.002 138.906 608.778 139.488 610.756C140.87 615.451 143.63 619.974 145.861 624.311Q151.331 635.037 157.014 645.651C159.849 650.899 162.994 656.099 165.415 661.547L165.7 662.196C161.548 670.913 155.037 678.92 149.965 687.189C140.456 671.868 130.408 656.896 120.762 641.661C116.556 635.019 111.795 628.31 108.273 621.287C106.517 617.786 105.062 614.067 104.505 610.172C103.152 600.7 105.748 592.231 111.525 584.71C118.158 576.074 125.808 568.078 133.074 559.963C144.629 547.058 156.465 532.16 170.547 521.987C179.365 515.617 189.301 510.602 200.176 509.167Z"/>
	<path fill="#FEFEFE" d="M266.455 596.829C267.79 598.218 268.724 600.376 269.71 602.06C272.981 607.64 277.277 612.629 283.331 615.292C291.682 618.966 300.241 617.364 308.437 614.3L308.498 675.446C308.5 685.307 307.41 698.333 309.173 707.779C309.883 711.583 312.149 715.038 314.803 717.785C318.132 721.23 321.987 723.433 326.719 724.211C332.889 725.224 339.653 724.704 345.891 724.669L375.21 724.57L486.018 724.657L486.274 802.919C486.305 811.486 487.336 830.572 485.957 838.047L280.116 838.335C279.035 819.653 268.475 669.635 269.669 665.851C270.138 664.362 271.454 664.229 272.762 663.686C273.137 663.102 273.398 662.606 273.423 661.893C273.611 656.535 272.169 650.386 271.572 644.983C269.815 629.066 267.33 612.803 266.455 596.829Z"/>
	<path fill="#FEFEFE" d="M690.766 643.717L946.829 643.7L947.111 764.865C947.09 778.493 947.886 792.358 947.313 805.946L690.023 806.264C690.016 793.224 689.403 645.743 690.028 644.498C690.189 644.178 690.52 643.978 690.766 643.717Z"/>
	<path fill="#DA776C" d="M723.934 748.438C731.75 748.268 739.582 748.332 747.401 748.303L747.442 792.879Q735.733 792.917 724.027 793.146L723.934 748.438Z"/>
	<path fill="#DADADA" d="M832.525 750.865Q846.47 751.245 860.419 751.133C860.556 764.753 860.416 778.386 860.402 792.007L832.54 792.035L832.525 750.865Z"/>
	<path fill="#4B71BE" d="M778.495 712.918L802.803 713.005C802.035 721.669 802.566 730.761 802.609 739.461L802.994 791.89C796.783 792.936 785.309 792.031 778.545 791.992Q778.256 752.454 778.495 712.918Z"/>
	<path fill="#4B71BE" d="M886.765 698.424L913.5 698.469L913.469 792.512L886.949 792.397L886.765 698.424Z"/>
	<path fill="#FEFEFE" d="M331.57 366.598Q332.784 366.536 333.999 366.518C369.757 366.024 405.588 366.461 441.354 366.459L649.231 366.437L773.595 366.689Q789.688 366.866 805.782 366.847C811.96 366.859 818.29 366.559 824.438 367.098C829.647 367.555 833.386 369.149 837.112 372.926C839.987 375.84 841.646 379.266 842.088 383.34C842.912 390.949 842.243 399.184 842.281 406.876L842.454 458.214L842.479 626.644L736.225 626.539Q722.613 626.586 709.001 626.489C704.054 626.444 698.792 626.027 693.873 626.532C690.943 626.833 688.462 627.655 686.267 629.694C684.645 631.2 683.253 633.306 682.854 635.512C681.46 643.214 682.579 655.02 682.656 663.291C682.836 682.531 683.131 701.853 682.678 721.088L676.101 721.115L442.316 721.14L367.233 721.18C354.508 721.199 340.047 722.282 327.579 720.901C323.769 720.478 320.397 718.213 317.772 715.526C315.712 713.418 313.36 710.187 312.78 707.236C311.284 699.621 312.377 687.144 312.346 679Q311.971 645.501 312.424 612.004C332.1 601.309 351.044 589.532 369.907 577.485C375.408 573.971 381.517 571.185 386.731 567.259C389.239 565.371 392.719 562.592 393.607 559.506C395.259 553.772 391.122 547.78 388.443 542.972C392.729 540.663 399.93 537.818 402.247 533.36Q402.408 533.05 402.536 532.725Q402.665 532.4 402.761 532.064Q402.857 531.728 402.919 531.384Q402.98 531.04 403.008 530.692Q403.035 530.343 403.027 529.994Q403.019 529.645 402.976 529.298Q402.934 528.951 402.857 528.61Q402.78 528.269 402.669 527.938C402.305 526.882 401.576 526.072 400.53 525.656C394.36 523.202 381.429 533.568 375.168 535.79L374.501 536.019C373.322 532.275 372.08 526.304 368.757 523.915C367.639 523.111 366.179 522.726 364.815 523.026C364.406 523.116 363.416 523.465 363.128 523.708C362.277 524.424 361.432 528.054 361.131 529.127C359.599 534.584 357.991 539.152 355.264 544.152C354.56 545.444 354.061 546.326 352.773 547.122C349.229 549.311 344.82 550.233 341.055 552.135C332.07 556.676 323.282 561.803 314.419 566.598L314.398 441.487L314.329 406.373C314.281 399.069 313.864 391.55 314.489 384.279C314.771 380.998 315.552 378.281 317.392 375.494C320.792 370.347 325.712 367.834 331.57 366.598Z"/>
	<path fill="#010101" d="M548.728 617.717L579.578 617.563C584.304 617.539 590.278 616.803 594.838 617.865C596.083 619.248 596.036 621.105 596.004 622.87Q595.971 624.118 595.875 625.363Q595.78 626.607 595.623 627.846Q595.465 629.084 595.247 630.313Q595.028 631.542 594.748 632.758Q594.468 633.975 594.128 635.176Q593.788 636.377 593.388 637.56Q592.989 638.742 592.531 639.904Q592.073 641.065 591.558 642.202Q591.042 643.339 590.471 644.449Q589.9 645.559 589.274 646.639Q588.648 647.719 587.969 648.767Q587.29 649.814 586.56 650.826Q585.83 651.839 585.05 652.814Q584.27 653.788 583.443 654.723Q582.615 655.658 581.742 656.55Q580.869 657.442 579.953 658.29C570.447 667.09 557.893 671.061 545.041 670.549Q543.887 670.502 542.737 670.398Q541.586 670.293 540.442 670.133Q539.298 669.973 538.164 669.757Q537.029 669.54 535.906 669.269Q534.784 668.997 533.676 668.671Q532.568 668.344 531.477 667.964Q530.386 667.583 529.316 667.15Q528.245 666.716 527.197 666.231Q526.149 665.746 525.126 665.209Q524.103 664.673 523.107 664.087Q522.112 663.501 521.146 662.867Q520.181 662.234 519.247 661.553Q518.314 660.872 517.415 660.147Q516.517 659.421 515.654 658.653Q514.792 657.884 513.969 657.074Q513.146 656.264 512.363 655.414C502.955 645.154 499.003 631.63 499.537 617.917C511.067 618.316 522.712 618.032 534.253 618.038C537.248 618.012 542.338 617.424 544.971 618.834L545.07 619.702C544.321 620.415 543.63 620.821 542.59 620.989C539.056 621.557 534.707 621.044 531.1 621.041L503.126 621.024C503.857 633.999 507.272 645.088 516.635 654.534Q517.383 655.274 518.166 655.977Q518.948 656.68 519.765 657.344Q520.581 658.008 521.428 658.631Q522.276 659.255 523.152 659.836Q524.029 660.418 524.933 660.956Q525.837 661.494 526.766 661.988Q527.695 662.481 528.648 662.929Q529.6 663.377 530.572 663.778Q531.545 664.179 532.536 664.532Q533.527 664.885 534.534 665.189Q535.541 665.494 536.562 665.749Q537.583 666.004 538.614 666.21Q539.646 666.415 540.687 666.57Q541.728 666.724 542.774 666.828Q543.821 666.932 544.872 666.985Q545.923 667.038 546.975 667.04C558.794 667.086 570.339 662.789 578.752 654.4C587.643 645.534 592.66 633.764 592.614 621.232C582.654 620.728 572.493 621.174 562.513 621.215C558.101 621.233 553.41 621.569 549.041 620.92C548.376 619.898 548.674 618.911 548.728 617.717Z"/>
	<path fill="#010101" d="M806.4 405.329C806.837 405.339 807.637 405.34 808.045 405.433C808.684 405.579 809.318 405.87 809.597 406.485C810.07 407.526 810.431 536.098 809.363 540.106C807.513 541.049 804.949 540.995 802.878 541.039C786.944 541.38 770.936 541.003 754.996 540.995L666.037 540.958Q642.969 540.869 619.902 541.06C611.045 541.104 602.004 541.503 593.17 540.869C592.564 531.871 592.865 522.625 592.856 513.603L592.818 465.218L592.684 432.553C592.659 426.418 592.106 419.762 593.136 413.722C593.925 412.972 593.913 413.002 595.005 412.943C595.794 413.948 595.977 414.749 596.049 416.003C596.276 419.937 595.997 424.052 596.005 428.012L596.067 456.25Q596.381 480.754 595.995 505.257C596.831 503.375 597.645 501.626 598.786 499.908C598.998 502.339 596.961 505.528 596.348 507.969C595.273 512.256 596.232 531.842 596.262 537.726C617.013 538.392 637.897 537.665 658.668 537.713L806.504 537.67L806.231 411.259C801.682 416.615 802.704 428.562 799.256 435.19C797.65 438.278 798.152 442.26 796.002 444.954C795.914 441.138 804.772 412.018 806.4 405.329Z"/>
	<path fill="#010101" d="M539.331 572.165C541.316 571.891 543.395 572.071 545.395 572.128C545.548 586.821 546.004 601.833 544.901 616.483L506.199 616.609L499.456 616.535Q499.446 615.646 499.472 614.757Q499.498 613.868 499.561 612.981Q499.623 612.094 499.721 611.21Q499.82 610.326 499.954 609.447Q500.089 608.568 500.259 607.695Q500.429 606.823 500.634 605.958Q500.84 605.092 501.08 604.236Q501.321 603.38 501.596 602.535Q501.871 601.689 502.18 600.855Q502.49 600.021 502.833 599.201Q503.176 598.381 503.552 597.575Q503.928 596.769 504.337 595.979Q504.746 595.19 505.186 594.417Q505.627 593.645 506.098 592.891Q506.57 592.137 507.072 591.403Q507.574 590.669 508.105 589.956C515.607 580.008 527.069 573.803 539.331 572.165Z"/>
	<path fill="#DADADA" d="M460.502 441.461L555.128 441.493C555.069 447.973 555.258 454.473 555.335 460.954L460.555 460.672L460.502 441.461Z"/>
	<path fill="#010101" d="M548.689 565.012C553.054 564.905 557.076 565.2 561.316 566.304C573.994 569.603 585.563 579.43 592.102 590.63C595.159 595.865 599.927 607.028 598.311 613.018C581.627 613.453 564.757 613.209 548.068 612.951L548.025 583.737C548.022 577.711 547.461 570.911 548.689 565.012Z"/>
	<path fill="#DA776C" d="M551.893 568.462Q553.362 568.567 554.821 568.769Q556.279 568.971 557.721 569.269Q559.164 569.567 560.583 569.96Q562.002 570.352 563.393 570.838Q564.783 571.324 566.138 571.9Q567.493 572.477 568.807 573.142Q570.121 573.807 571.388 574.557Q572.655 575.307 573.87 576.14C585.739 584.251 592.04 595.527 594.643 609.47L551.561 609.413C551.52 597.177 550.471 580.237 551.893 568.462Z"/>
	<path fill="#DADADA" d="M460.968 479.389C471.937 479.74 482.991 479.466 493.971 479.483L555.542 479.565L555.486 499.507Q508.209 499.769 460.932 499.506L460.968 479.389Z"/>
	<path fill="#DADADA" d="M342.011 441.021Q391.758 441.541 441.508 441.487C441.52 447.824 441.996 454.558 441.315 460.843L342.046 461.107L342.011 441.021Z"/>
	<path fill="#DADADA" d="M342.194 479.496L441.625 479.586C441.587 486.287 442.015 493.296 441.354 499.949L342.165 499.582C342.26 492.888 342.433 486.188 342.194 479.496Z"/>
	<path fill="#4B71BE" d="M341.934 396.17C366.08 395.295 390.508 396.011 414.68 396.021L555.655 396.075C555.665 400.485 556.673 419.923 554.898 422.439L341.789 422.127L341.934 396.17Z"/>
</svg>
