<?xml version="1.0" encoding="utf-8" ?>
<svg xmlns="http://www.w3.org/2000/svg" xmlns:xlink="http://www.w3.org/1999/xlink" width="1024" height="1024">
	<path fill="white" d="M0 0L1024 0L1024 1024L0 1024L0 0Z"/>
	<path fill="#EE5F59" d="M703.913 888.163C705.269 888.088 705.334 887.918 706.341 888.791C707.162 891.667 705.769 896.521 704.36 899.084C702.137 903.131 698.079 906.164 693.623 907.313C686.784 909.077 674.051 907.891 666.504 907.887L611.14 907.949L469.167 907.867L414.384 907.822C405.099 907.8 395.697 908.118 386.425 907.709C382.044 907.515 377.991 906.683 374.176 904.402C368.251 900.861 364.651 895.199 361.25 889.39C369.716 890.064 378.527 889.54 387.042 889.523L437.477 889.377L584.376 889.433L670.609 889.411C677.584 889.41 698.312 890.29 703.518 888.971L703.913 888.163Z"/>
	<path fill="#010001" d="M418.895 521.771C423.043 513.8 428.536 508.07 437.258 505.29C448.327 501.762 460.616 504.272 470.707 509.538C482.84 515.87 493.52 527.184 497.65 540.387C503.277 558.378 495.308 563.642 490.856 579.438C494.221 581.302 496.534 584.199 497.579 587.929C498.702 591.938 497.922 596.611 495.767 600.155C491.153 607.745 485.765 600.634 484.394 611.003L484.127 612.394C481.795 622.977 478.542 629.868 470.67 637.391C479.079 640.242 487.671 642.565 496.005 645.623C520.929 654.77 543.629 669.349 555.748 693.739C564.741 711.838 571.739 734.481 578.824 753.626L687.605 753.592L718.224 753.474C723.643 753.439 729.451 752.98 734.82 753.596C737.132 753.861 739.185 754.672 740.812 756.381C742.319 757.964 743.295 759.757 743.13 761.975C742.532 770.01 737.627 781.431 735.17 789.407L711.174 865.487L857.483 865.535C867.149 865.541 917.675 864.503 923.122 866.445L923.947 867.287C923.609 868.212 923.894 867.967 923.011 868.359C921.582 868.993 919.891 869.103 918.347 869.166C901.131 869.868 882.741 869.059 865.392 869.049L780.705 869.125C757.027 869.078 733.24 868.745 709.573 869.418C707.565 875.352 704.679 881.937 703.913 888.163L703.518 888.971C698.312 890.29 677.584 889.41 670.609 889.411L584.376 889.433L437.477 889.377L387.042 889.523C378.527 889.54 369.716 890.064 361.25 889.39C361.182 889.173 361.085 888.963 361.046 888.738C360.811 887.382 361 887.196 361.821 886.218C366.042 884.816 385.774 885.678 391.67 885.656L470.792 885.495C472.456 880.682 473.447 875.618 474.596 870.661C463.575 870.186 452.428 870.442 441.395 870.453C428.984 870.465 416.51 870.272 404.112 870.801C404.919 872.568 405.749 874.339 406.484 876.137C407.276 878.075 407.651 879.492 406.834 881.493L405.812 881.778C400.695 879.836 396.429 873.588 392.28 869.955C369.055 870.385 345.762 869.42 322.53 869.372L141.505 869.075C136.015 869.072 102.139 869.814 99.8134 868.637C98.7475 868.098 98.2572 867.67 97.8898 866.516C98.0221 866.385 98.1243 866.215 98.2865 866.124C100.733 864.754 189.667 865.255 200.273 865.4C192.908 861.397 188.205 856.638 183.023 850.084C177.831 849.616 172.383 850.259 167.348 848.683C162.138 847.052 158.144 843.558 155.795 838.641C153.682 834.216 153.468 829.666 155.229 825.069C157.186 819.958 162.267 814.364 167.839 813.244C170.202 812.769 172.668 813 174.904 812.019C175.082 810.641 175.085 809.873 176.049 808.798C179.783 807.281 253.831 807.442 260.708 808.557L260.306 809.112L261.139 808.755C261.253 808.972 261.38 809.183 261.48 809.407C263.989 814.999 260.699 830.753 258.708 836.563C253.873 850.674 245.677 858.816 232.432 865.356C246.695 864.998 261.045 865.314 275.316 865.313C271.47 861.557 268.322 857.27 266.693 852.09C265.474 848.213 264.931 843.143 265.78 839.098C268.169 827.724 273.241 816.273 277.008 805.272Q289.769 767.498 303.376 730.021Q307.494 718.446 311.428 706.807C313.316 701.307 314.964 695.506 317.769 690.391C334.848 659.232 373.45 644.995 405.646 635.691C405.146 627.831 404.351 619.8 403.234 612.008L403.365 611.073C403.244 609.323 403.401 606.731 402.542 605.205C396.93 603.509 392.68 602.478 389.628 597.017Q389.228 596.304 388.902 595.553Q388.576 594.803 388.327 594.024Q388.079 593.245 387.911 592.444Q387.742 591.644 387.655 590.83Q387.569 590.017 387.565 589.199Q387.561 588.381 387.639 587.567Q387.718 586.753 387.879 585.951Q388.039 585.149 388.28 584.367C389.396 580.72 392.014 577.497 395.468 575.824C397.459 574.859 399.693 574.574 401.859 574.251C399.142 561.093 393.57 542.283 401.865 530.166C404.59 526.185 408.888 523.102 413.699 522.285C415.405 521.995 417.17 521.894 418.895 521.771Z"/>
	<path fill="white" d="M489.706 582.809C489.92 582.948 490.142 583.074 490.347 583.225C492.699 584.961 494.17 587.791 494.376 590.686C494.667 594.804 493.002 597.783 490.392 600.797C489.143 601.423 488.106 602.091 486.66 601.954C486.051 599.861 489.032 585.785 489.706 582.809Z"/>
	<path fill="white" d="M171.156 816.619C172.506 816.529 173.68 816.656 175.006 816.857C174.842 817.857 166.445 819.513 163.861 822.519C161.302 825.497 160.171 829.153 160.641 833.045C162.299 846.748 175.093 840.895 180.125 844.734C179.939 845.32 180.094 844.951 179.477 845.744C174.642 845.782 169.939 846.069 165.582 843.541C162.211 841.584 159.509 838.324 158.611 834.491C157.745 830.801 158.591 826.839 160.595 823.659C163.046 819.768 166.794 817.681 171.156 816.619Z"/>
	<path fill="white" d="M170.267 822.542C171.629 822.379 172.645 822.347 174.021 822.56C176.285 824.164 176.89 835.952 177.701 839.592L171.489 839.676C169.487 839.309 167.377 838.202 166.068 836.605C164.594 834.807 164.248 832.585 164.633 830.339C165.263 826.658 167.33 824.615 170.267 822.542Z"/>
	<path fill="white" d="M409.023 625.443C412.808 632.06 417.734 637.091 424.51 640.648C436.237 646.804 449.682 646.756 462.096 642.929C460.643 653.078 458.322 662.13 453.621 671.281C452.38 673.344 450.977 675.472 449.304 677.217C445.895 680.775 441.536 682.91 436.566 682.984C431.667 683.056 427.376 680.748 424.064 677.25C412.679 665.229 408.803 641.395 409.023 625.443Z"/>
	<path fill="white" d="M345.188 824.55C354.171 826.755 384.869 835.9 391.674 840.217C393.313 841.256 395.565 843.003 395.7 845.128C395.811 846.88 394.855 848.418 393.69 849.606C390.243 851.183 359.768 840.633 354.376 838.865C352.554 838.267 350.849 838.217 349.105 839.068C349.267 839.75 349.229 840.492 349.836 840.92C356.476 845.599 380.576 848.274 387.831 853.407C389.089 854.297 389.438 855.046 389.625 856.536C389.179 857.565 388.714 858.196 387.77 858.836C381.866 862.842 371.816 858.436 365.356 856.982C361.458 855.953 345.447 851.209 342.628 851.094C341.457 851.046 341.4 851.256 340.606 852.034C340.483 853.291 340.442 853.216 341.22 854.206C350.465 857.514 373.815 863.69 383.061 864.093C384.892 864.173 386.067 863.961 387.629 864.959L387.56 865.579C381.692 868.74 338.572 866.986 331.72 864.977C328.443 864.017 325.674 862.101 324.188 858.952C322.21 854.759 323.216 849.309 324.79 845.142C328.45 835.45 335.848 828.663 345.188 824.55Z"/>
	<path fill="#EE5F59" d="M179.515 812.048Q218.759 811.716 258.002 812.025C258.546 827.568 255.739 840.15 245.256 852.02C244.972 852.319 244.682 852.612 244.387 852.9C236.571 860.526 226.538 864.753 215.586 864.579C205.927 864.427 197.275 860.611 190.617 853.598C179.396 841.78 179.227 827.393 179.515 812.048Z"/>
	<path fill="white" d="M423.149 545.854C424.529 546.178 439.968 559.133 443.706 561.308C448.844 564.3 454.693 566.501 460.446 567.956C469.509 570.247 479.739 569.933 486.63 577.078C483.321 593.064 482.973 615.59 473.201 628.956C467.443 636.832 460.063 640.08 450.605 641.525C439.329 641.937 429.396 640.148 420.349 632.916C409.45 624.202 407.696 614.737 406.269 601.564C403.993 601.298 401.68 601.278 399.39 601.192C398.159 600.468 396.984 599.694 395.895 598.763C393.332 596.571 391.874 593.107 391.686 589.773C391.507 586.601 392.227 582.717 394.562 580.391C400.742 574.24 402.983 583.467 408.127 583.595C411.395 580.339 408.73 570.775 408.911 566.367C409.248 558.136 417.422 550.961 423.149 545.854Z"/>
	<path fill="#010001" d="M466.432 587.279C467.416 587.429 468.654 587.672 469.431 588.342C470.413 589.188 470.659 590.228 470.615 591.466C470.56 592.985 469.4 594.141 468.406 595.132C467.225 594.857 466.145 594.574 465.194 593.77C464.108 592.85 464.027 591.862 463.91 590.546C464.485 588.927 465.091 588.328 466.432 587.279Z"/>
	<path fill="#010001" d="M427.319 588.012C428.695 587.875 430.289 587.648 431.558 588.346C432.862 589.064 433.008 589.616 433.428 590.926C433.2 592.577 432.82 593.237 431.834 594.584C430.771 594.769 429.383 595.08 428.354 594.619C427.266 594.131 426.469 593.281 426.266 592.084C426.01 590.586 426.668 589.295 427.319 588.012Z"/>
	<path fill="#010001" d="M450.542 587.915C451.165 588.234 451.674 588.321 452.002 588.988C453.193 591.414 453.135 609.247 452.044 611.551C450.816 614.144 443.106 612.248 440.356 613.027C439.655 614.141 439.651 614.764 439.949 616.061C442.331 626.413 451.806 618.581 457.219 621.926C457.309 623.347 457.084 623.393 456.224 624.561C453.795 625.075 451.305 625.326 448.831 625.519C445.555 625.775 442.202 625.161 439.698 622.897C437.349 620.774 436.061 617.718 435.91 614.577C435.823 612.745 436.079 611.346 437.31 609.969C440.871 609.085 445.078 609.477 448.757 609.486C449.024 603.353 448.382 597.063 448.924 590.957C449.069 589.322 449.297 588.972 450.542 587.915Z"/>
	<path fill="white" d="M556.75 757.245C597.189 756.821 637.688 757.301 678.134 757.281L715.987 757.269C722.726 757.269 730.02 756.718 736.675 757.764C737.598 758.537 738.187 758.977 738.734 760.083C739.563 761.755 738.74 764.758 738.316 766.545C737.257 771.009 735.642 775.424 734.312 779.821C730.692 791.796 726.828 803.638 722.862 815.502C720.037 823.953 717.692 832.552 714.945 841.026C710.12 855.911 704.96 870.677 700.432 885.661L658.75 885.665L474.606 885.583C482.66 855.502 488.821 824.848 495.689 794.479C497.817 785.07 499.578 775.464 502.061 766.148C502.637 763.987 503.809 760.165 505.429 758.583C507.824 756.243 550.351 757.278 556.75 757.245Z"/>
	<path fill="#6BA1D5" d="M604.577 808.606C607.35 808.326 609.616 808.228 612.297 809.088C616.033 810.287 619.27 812.7 621.056 816.249Q621.342 816.825 621.569 817.426Q621.796 818.028 621.962 818.649Q622.127 819.27 622.229 819.905Q622.332 820.539 622.37 821.181Q622.408 821.823 622.381 822.465Q622.355 823.108 622.264 823.744Q622.173 824.38 622.018 825.005Q621.864 825.629 621.648 826.234C619.921 831.2 616.063 833.842 611.52 835.942C608.375 836.271 605.778 836.275 602.811 835.055Q602.134 834.784 601.487 834.447Q600.84 834.11 600.23 833.71Q599.62 833.311 599.052 832.853Q598.484 832.395 597.965 831.884Q597.445 831.372 596.979 830.811Q596.512 830.251 596.103 829.647Q595.695 829.043 595.348 828.401Q595.001 827.76 594.719 827.087Q594.466 826.481 594.275 825.853Q594.084 825.225 593.956 824.581Q593.828 823.937 593.765 823.284Q593.702 822.63 593.705 821.974Q593.707 821.317 593.775 820.664Q593.843 820.011 593.975 819.368Q594.108 818.725 594.304 818.099Q594.5 817.472 594.757 816.868C596.706 812.344 600.27 810.386 604.577 808.606Z"/>
	<path fill="#6BA1D5" d="M404.606 640.053C404.735 640.036 404.863 639.993 404.992 640.002C406.623 640.121 406.614 641.558 406.834 642.923C408.669 654.331 410.884 665.55 417.515 675.295C421.276 680.823 426.563 685.749 433.388 686.871C438.642 687.734 444.03 686.209 448.275 683.06C460.999 673.62 463.835 654.589 466.046 640.042C481.817 644.772 498.357 649.595 512.945 657.355C542.096 672.862 550.752 689.232 561.964 718.917C566.274 730.33 570.619 741.831 574.225 753.484L532.24 753.418C525.091 753.414 517.511 752.896 510.403 753.613C508.385 753.816 506.115 754.089 504.35 755.174C502.092 756.564 500.573 758.915 499.704 761.373C496.128 771.482 494.403 783.112 492.02 793.61C486.487 817.99 481.438 842.554 475.283 866.782C450.883 866.32 426.418 866.778 402.014 866.909C399.854 862.25 397.742 857.582 395.211 853.109C396.522 851.745 397.488 850.491 398.391 848.827C398.966 846.035 399.404 843.535 398.038 840.898C395.041 835.11 385.252 833.237 379.502 831.364C374.405 823.461 368.749 815.829 363.357 808.12C357.735 800.082 352.23 791.456 345.555 784.251C342.222 786.073 339.047 788.403 336.096 790.788C338.401 796.1 342.442 800.898 345.753 805.62L358.316 823.884L344.967 820.553C343.035 821.357 341.082 822.14 339.253 823.164C330.425 828.108 323.224 836.063 320.579 845.961C318.616 853.307 319.829 858.856 323.583 865.245Q312.483 865.218 301.384 865.394C296.822 865.457 291.878 865.873 287.366 865.293Q285.371 865.054 283.453 864.455Q281.535 863.855 279.759 862.916C274.842 860.269 271.686 855.885 270.237 850.535Q269.828 849.019 269.612 847.463Q269.395 845.908 269.373 844.337Q269.351 842.767 269.525 841.206Q269.699 839.645 270.065 838.118C272.673 827.312 277.139 816.617 280.814 806.108L300.346 750.279Q306.704 732.323 312.839 714.289C315.482 706.728 317.815 698.55 321.779 691.574C337.947 663.122 374.392 648.319 404.606 640.053Z"/>
	<path fill="#4E6E8D" d="M114.09 176.426C135.107 175.902 156.18 176.179 177.204 176.181L281.911 176.211L641.915 176.158L642.466 612.602L530.159 612.164L500.878 612.09C495.446 612.072 489.48 611.588 484.127 612.394L484.394 611.003C485.765 600.634 491.153 607.745 495.767 600.155C497.922 596.611 498.702 591.938 497.579 587.929C496.534 584.199 494.221 581.302 490.856 579.438C495.308 563.642 503.277 558.378 497.65 540.387C493.52 527.184 482.84 515.87 470.707 509.538C460.616 504.272 448.327 501.762 437.258 505.29C428.536 508.07 423.043 513.8 418.895 521.771C417.17 521.894 415.405 521.995 413.699 522.285C408.888 523.102 404.59 526.185 401.865 530.166C393.57 542.283 399.142 561.093 401.859 574.251C399.693 574.574 397.459 574.859 395.468 575.824C392.014 577.497 389.396 580.72 388.28 584.367Q388.039 585.149 387.879 585.951Q387.718 586.753 387.639 587.567Q387.561 588.381 387.565 589.199Q387.569 590.017 387.655 590.83Q387.742 591.644 387.911 592.444Q388.079 593.245 388.327 594.024Q388.576 594.803 388.902 595.553Q389.228 596.304 389.628 597.017C392.68 602.478 396.93 603.509 402.542 605.205C403.401 606.731 403.244 609.323 403.365 611.073L403.234 612.008C306.876 612.993 210.471 611.389 114.107 612.048L114.09 176.426Z"/>
	<path fill="white" d="M223.165 376.414C224.552 377.992 251.994 453.507 255.439 463.53L223.197 463.557C223.623 434.524 222.739 405.455 223.165 376.414Z"/>
	<path fill="white" d="M383.724 374.348C385.228 380.325 384.228 395.373 384.21 402.376L384.111 463.493L352.738 463.481C352.595 459.805 379.856 384.746 383.724 374.348Z"/>
	<path fill="white" d="M535.75 219.452C536.538 220.247 569.237 304.505 572.334 313.467C560.096 313.668 547.828 313.497 535.587 313.509L535.75 219.452Z"/>
	<path fill="white" d="M248.725 363.998L249.283 364.209C252.317 367.989 282.498 446.114 284.837 454.66C276.974 457.439 268.934 460.028 261.278 463.337C259.777 463.507 258.644 463.629 257.158 463.199C255.226 459.989 254.052 455.67 252.716 452.133Q248.349 440.558 244.102 428.938C237.509 410.987 229.59 392.313 224.089 374.111C232.298 370.693 240.416 367.181 248.725 363.998Z"/>
	<path fill="white" d="M561.497 206.563C565.583 211.231 594.341 290.262 599.426 303.675C591.36 306.685 583.054 309.511 575.423 313.529L574.549 313.324C571.097 308.676 565.878 293.058 563.594 287.153L537.084 217.271C545.369 214.374 553.492 210.191 561.497 206.563Z"/>
	<path fill="white" d="M421.472 205.332C428.738 206.405 436.737 210.071 443.731 212.501C444.321 213.502 444.942 214.509 445.188 215.662C445.905 219.03 445.249 222.806 444.389 226.104C442.031 235.154 438.06 244.076 435.008 252.937C429.398 269.224 424.448 285.784 418.321 301.882C417.317 304.522 416.607 307.781 414.986 310.1L414.295 309.918C406.015 306.657 397.14 304.779 388.721 301.812C392.806 292.091 395.768 281.56 398.992 271.524Q405.573 251.013 412.461 230.603C415.208 222.316 417.53 213.1 421.472 205.332Z"/>
	<path fill="white" d="M358.312 358.314C366.835 361.031 375.401 364.513 384.141 366.379C382.799 375.626 374.758 394.58 371.298 404.566Q363.498 427.608 355.067 450.427C353.632 454.259 352.758 458.407 351.067 462.11L350.314 462.113C341.308 459.219 332.134 456.877 323.009 454.388C335.111 422.475 345.368 389.927 358.312 358.314Z"/>
	<path fill="white" d="M193.93 353.552L221.453 353.614L221.858 463.458C212.56 463.727 203.208 463.534 193.904 463.546L193.93 353.552Z"/>
	<path fill="white" d="M191.373 286.242C203.958 286.063 267.674 284.686 275.819 287.209C277.572 290.396 276.484 309.342 276.445 313.902L251.25 313.932L165.008 313.85L164.991 286.506C173.752 286.15 182.601 286.329 191.373 286.242Z"/>
	<path fill="white" d="M415.014 353.075L444.416 352.984L444.471 463.449L414.892 463.461L415.014 353.075Z"/>
	<path fill="white" d="M506.075 197.576C515.334 197.021 524.93 197.465 534.207 197.657C534.694 210.343 534.268 223.188 534.267 235.891L534.09 313.419C524.708 313.729 515.287 313.559 505.899 313.554L506.075 197.576Z"/>
	<path fill="white" d="M446.91 188.618C456.415 188.327 465.954 188.52 475.463 188.557C475.566 230.17 476.587 271.895 475.791 313.497L447.041 313.495L446.91 188.618Z"/>
	<path fill="white" d="M410.697 334.251C411.431 334.217 412.11 334.302 412.839 334.379C413.545 335.462 413.668 336.451 413.726 337.715C413.857 340.563 413.446 343.483 413.454 346.35L413.509 376.316L413.502 463.449L388.375 463.502C387.537 463.526 386.969 463.45 386.172 463.19C385.546 462.183 385.444 461.19 385.382 460.027C385.245 457.451 385.649 454.828 385.634 452.238Q385.516 435.938 385.61 419.64L385.51 334.292C393.903 334.372 402.303 334.277 410.697 334.251Z"/>
	<path fill="white" d="M136.193 332.239C145.448 331.988 154.732 332.133 163.991 332.133L164.101 423.928L163.992 448.747C163.981 453.451 164.304 458.306 163.828 462.986L163.029 463.574L135.102 463.545C135.355 451.66 135.022 333.959 135.565 332.996C135.726 332.71 135.983 332.492 136.193 332.239Z"/>
	<path fill="white" d="M446.108 334.709Q460.745 334.792 475.381 334.645L475.276 463.436C465.497 463.706 455.676 463.516 445.892 463.507Q445.585 399.107 446.108 334.709Z"/>
	<path fill="white" d="M298.373 314.75L640.934 314.806L640.88 327.483L459.077 327.441L115.179 327.274L115.304 314.905Q206.84 315.863 298.373 314.75Z"/>
	<path fill="white" d="M350.176 464.744C356.74 464.371 363.496 464.806 370.084 464.761L429.343 464.906C455.885 464.963 482.47 464.374 509 464.632Q550.35 465.24 591.704 464.94C608.122 464.925 624.571 465.11 640.982 464.634L640.959 479.454L406.007 479.441L115.165 479.519L115.343 464.852L265.922 464.984C293.906 465.044 322.228 465.88 350.176 464.744Z"/>
	<path fill="white" d="M115.283 328.61L458.406 328.692C519.188 328.777 580.057 329.345 640.834 328.644L640.947 463.509L558.944 463.551C545.693 463.551 532.222 463.034 518.993 463.602C510.553 464.489 501.362 463.889 492.871 463.583L476.705 463.54L476.669 378.416C476.676 363.446 476.235 348.32 476.786 333.372L444.51 333.425L444.486 351.702L415.052 351.764L415.032 332.808Q399.57 333.027 384.106 332.936L383.996 364.897C375.114 362.526 366.224 359.464 357.566 356.37C344.556 388.487 332.221 422.157 321.6 455.143C330.947 458.492 340.865 460.858 350.454 463.459Q307.346 464.098 264.237 463.614C270.815 459.734 279.789 457.631 287.026 455.166C281.825 444.323 277.924 432.424 273.771 421.122Q266.836 402.52 259.333 384.14C256.362 376.754 253.572 369.174 250.192 361.966C241.29 364.622 231.381 368.73 223.163 373.139Q222.987 362.798 223.006 352.456C212.888 351.962 202.561 351.967 192.44 352.419L192.473 463.597L165.522 463.636C165.621 419.436 166.004 375.194 165.525 330.998Q149.784 330.805 134.042 330.965C133.473 346.82 133.878 362.788 133.871 378.656L133.774 463.512L115.187 463.52L115.283 328.61Z"/>
	<path fill="#EE5F59" d="M492.831 353.903L518.998 353.839C518.99 390.406 518.487 427.044 518.993 463.602C510.553 464.489 501.362 463.889 492.871 463.583L492.831 353.903Z"/>
	<path fill="white" d="M115.326 177.485L640.495 177.483L640.835 313.478L578.591 313.48Q590.052 309.191 601.274 304.312C598.805 296.634 595.481 289.074 592.653 281.501Q584.512 259.466 576.002 237.572C571.641 226.532 566.93 215.628 562.721 204.53C558.455 206.1 539.194 215.932 536.601 215.078C534.426 209.927 536.89 203.505 535.583 198.238C535.356 197.321 535.161 196.788 534.241 196.421C530.735 195.025 508.891 195.611 505.068 196.869C503.359 201.465 504.405 300.39 504.404 313.469L486.25 313.457L477.42 313.473C477.844 292.719 477.302 271.854 477.228 251.093C477.156 230.997 477.564 210.78 476.832 190.7L476.647 190.934C476.75 189.866 476.73 188.942 476.613 187.876C473.748 185.951 450.072 186.752 445.437 187.405C445.447 195.319 445.681 203.314 445.258 211.215C437.004 208.601 428.818 205.72 420.607 202.968C408.613 236.007 397.745 269.606 387.029 303.078C396.677 305.378 406.839 308.69 416.106 312.23C418.904 302.946 422.873 293.889 425.93 284.651C432.075 266.08 437.579 246.679 445.365 228.735L445.542 313.549L277.987 313.546C278.014 309.233 279.064 288.604 277.169 286.315C274.704 285.368 272.179 284.871 269.552 284.671C255.903 283.63 241.498 284.504 227.769 284.549C206.399 284.619 184.9 284.255 163.547 285.036Q163.388 299.46 163.487 313.885L115.303 313.557L115.326 177.485Z"/>
	<path fill="white" d="M115.337 480.664L640.978 480.657Q640.733 546.077 641.162 611.495C588.933 611.486 536.61 610.152 484.394 611.003C485.765 600.634 491.153 607.745 495.767 600.155C497.922 596.611 498.702 591.938 497.579 587.929C496.534 584.199 494.221 581.302 490.856 579.438C495.308 563.642 503.277 558.378 497.65 540.387C493.52 527.184 482.84 515.87 470.707 509.538C460.616 504.272 448.327 501.762 437.258 505.29C428.536 508.07 423.043 513.8 418.895 521.771C417.17 521.894 415.405 521.995 413.699 522.285C408.888 523.102 404.59 526.185 401.865 530.166C393.57 542.283 399.142 561.093 401.859 574.251C399.693 574.574 397.459 574.859 395.468 575.824C392.014 577.497 389.396 580.72 388.28 584.367Q388.039 585.149 387.879 585.951Q387.718 586.753 387.639 587.567Q387.561 588.381 387.565 589.199Q387.569 590.017 387.655 590.83Q387.742 591.644 387.911 592.444Q388.079 593.245 388.327 594.024Q388.576 594.803 388.902 595.553Q389.228 596.304 389.628 597.017C392.68 602.478 396.93 603.509 402.542 605.205C403.401 606.731 403.244 609.323 403.365 611.073C385.164 610.609 366.902 610.868 348.694 610.82L244.348 610.72L160.437 610.858C145.462 610.875 130.417 610.495 115.454 610.966L115.337 480.664Z"/>
</svg>
